<svg width="650" height="502" viewBox="0 0 650 502" fill="none" xmlns="http://www.w3.org/2000/svg">
<g filter="url(#filter0_d_16_1285)">
<rect x="40" y="232" width="275" height="179" rx="10" fill="white"/>
</g>
<g filter="url(#filter1_d_16_1285)">
<rect x="145" y="232" width="65" height="5" fill="#FD4C5C"/>
</g>
<path opacity="0.8" d="M89.9408 342.084C89.3888 342.084 88.8928 341.988 88.4528 341.796C88.0208 341.596 87.6808 341.324 87.4328 340.98C87.1848 340.628 87.0568 340.224 87.0488 339.768H88.2128C88.2528 340.16 88.4128 340.492 88.6928 340.764C88.9808 341.028 89.3968 341.16 89.9408 341.16C90.4608 341.16 90.8688 341.032 91.1648 340.776C91.4688 340.512 91.6208 340.176 91.6208 339.768C91.6208 339.448 91.5328 339.188 91.3568 338.988C91.1808 338.788 90.9608 338.636 90.6968 338.532C90.4328 338.428 90.0768 338.316 89.6288 338.196C89.0768 338.052 88.6328 337.908 88.2968 337.764C87.9688 337.62 87.6848 337.396 87.4448 337.092C87.2128 336.78 87.0968 336.364 87.0968 335.844C87.0968 335.388 87.2128 334.984 87.4448 334.632C87.6768 334.28 88.0008 334.008 88.4168 333.816C88.8408 333.624 89.3248 333.528 89.8688 333.528C90.6528 333.528 91.2928 333.724 91.7888 334.116C92.2928 334.508 92.5768 335.028 92.6408 335.676H91.4408C91.4008 335.356 91.2328 335.076 90.9368 334.836C90.6408 334.588 90.2488 334.464 89.7608 334.464C89.3048 334.464 88.9328 334.584 88.6448 334.824C88.3568 335.056 88.2128 335.384 88.2128 335.808C88.2128 336.112 88.2968 336.36 88.4648 336.552C88.6408 336.744 88.8528 336.892 89.1008 336.996C89.3568 337.092 89.7128 337.204 90.1688 337.332C90.7208 337.484 91.1648 337.636 91.5008 337.788C91.8368 337.932 92.1248 338.16 92.3648 338.472C92.6048 338.776 92.7248 339.192 92.7248 339.72C92.7248 340.128 92.6168 340.512 92.4008 340.872C92.1848 341.232 91.8648 341.524 91.4408 341.748C91.0168 341.972 90.5168 342.084 89.9408 342.084ZM94.0238 338.688C94.0238 338.016 94.1598 337.428 94.4318 336.924C94.7038 336.412 95.0758 336.016 95.5478 335.736C96.0278 335.456 96.5598 335.316 97.1438 335.316C97.7198 335.316 98.2198 335.44 98.6438 335.688C99.0678 335.936 99.3838 336.248 99.5918 336.624V335.424H100.696V342H99.5918V340.776C99.3758 341.16 99.0518 341.48 98.6198 341.736C98.1958 341.984 97.6998 342.108 97.1318 342.108C96.5478 342.108 96.0198 341.964 95.5478 341.676C95.0758 341.388 94.7038 340.984 94.4318 340.464C94.1598 339.944 94.0238 339.352 94.0238 338.688ZM99.5918 338.7C99.5918 338.204 99.4918 337.772 99.2918 337.404C99.0918 337.036 98.8198 336.756 98.4758 336.564C98.1398 336.364 97.7678 336.264 97.3598 336.264C96.9518 336.264 96.5798 336.36 96.2438 336.552C95.9078 336.744 95.6398 337.024 95.4398 337.392C95.2398 337.76 95.1398 338.192 95.1398 338.688C95.1398 339.192 95.2398 339.632 95.4398 340.008C95.6398 340.376 95.9078 340.66 96.2438 340.86C96.5798 341.052 96.9518 341.148 97.3598 341.148C97.7678 341.148 98.1398 341.052 98.4758 340.86C98.8198 340.66 99.0918 340.376 99.2918 340.008C99.4918 339.632 99.5918 339.196 99.5918 338.7ZM102.233 338.688C102.233 338.016 102.369 337.428 102.641 336.924C102.913 336.412 103.285 336.016 103.757 335.736C104.237 335.456 104.773 335.316 105.365 335.316C105.877 335.316 106.353 335.436 106.793 335.676C107.233 335.908 107.569 336.216 107.801 336.6V333.12H108.905V342H107.801V340.764C107.585 341.156 107.265 341.48 106.841 341.736C106.417 341.984 105.921 342.108 105.353 342.108C104.769 342.108 104.237 341.964 103.757 341.676C103.285 341.388 102.913 340.984 102.641 340.464C102.369 339.944 102.233 339.352 102.233 338.688ZM107.801 338.7C107.801 338.204 107.701 337.772 107.501 337.404C107.301 337.036 107.029 336.756 106.685 336.564C106.349 336.364 105.977 336.264 105.569 336.264C105.161 336.264 104.789 336.36 104.453 336.552C104.117 336.744 103.849 337.024 103.649 337.392C103.449 337.76 103.349 338.192 103.349 338.688C103.349 339.192 103.449 339.632 103.649 340.008C103.849 340.376 104.117 340.66 104.453 340.86C104.789 341.052 105.161 341.148 105.569 341.148C105.977 341.148 106.349 341.052 106.685 340.86C107.029 340.66 107.301 340.376 107.501 340.008C107.701 339.632 107.801 339.196 107.801 338.7ZM116.851 338.46C116.851 338.668 116.839 338.888 116.815 339.12H111.559C111.599 339.768 111.819 340.276 112.219 340.644C112.627 341.004 113.119 341.184 113.695 341.184C114.167 341.184 114.559 341.076 114.871 340.86C115.191 340.636 115.415 340.34 115.543 339.972H116.719C116.543 340.604 116.191 341.12 115.663 341.52C115.135 341.912 114.479 342.108 113.695 342.108C113.071 342.108 112.511 341.968 112.015 341.688C111.527 341.408 111.143 341.012 110.863 340.5C110.583 339.98 110.443 339.38 110.443 338.7C110.443 338.02 110.579 337.424 110.851 336.912C111.123 336.4 111.503 336.008 111.991 335.736C112.487 335.456 113.055 335.316 113.695 335.316C114.319 335.316 114.871 335.452 115.351 335.724C115.831 335.996 116.199 336.372 116.455 336.852C116.719 337.324 116.851 337.86 116.851 338.46ZM115.723 338.232C115.723 337.816 115.631 337.46 115.447 337.164C115.263 336.86 115.011 336.632 114.691 336.48C114.379 336.32 114.031 336.24 113.647 336.24C113.095 336.24 112.623 336.416 112.231 336.768C111.847 337.12 111.627 337.608 111.571 338.232H115.723ZM119.52 340.488L118.176 343.716H117.444L118.32 340.488H119.52ZM129.114 340.14H125.466L124.794 342H123.642L126.666 333.684H127.926L130.938 342H129.786L129.114 340.14ZM128.802 339.252L127.29 335.028L125.778 339.252H128.802ZM136.028 342L133.448 339.096V342H132.356V333.12H133.448V338.34L135.98 335.424H137.504L134.408 338.7L137.516 342H136.028ZM139.724 335.424V342H138.632V335.424H139.724ZM141.277 338.7C141.277 338.02 141.413 337.428 141.685 336.924C141.957 336.412 142.333 336.016 142.813 335.736C143.301 335.456 143.857 335.316 144.481 335.316C145.289 335.316 145.953 335.512 146.473 335.904C147.001 336.296 147.349 336.84 147.517 337.536H146.341C146.229 337.136 146.009 336.82 145.681 336.588C145.361 336.356 144.961 336.24 144.481 336.24C143.857 336.24 143.353 336.456 142.969 336.888C142.585 337.312 142.393 337.916 142.393 338.7C142.393 339.492 142.585 340.104 142.969 340.536C143.353 340.968 143.857 341.184 144.481 341.184C144.961 341.184 145.361 341.072 145.681 340.848C146.001 340.624 146.221 340.304 146.341 339.888H147.517C147.341 340.56 146.989 341.1 146.461 341.508C145.933 341.908 145.273 342.108 144.481 342.108C143.857 342.108 143.301 341.968 142.813 341.688C142.333 341.408 141.957 341.012 141.685 340.5C141.413 339.988 141.277 339.388 141.277 338.7ZM150.166 335.424V342H149.074V335.424H150.166ZM157.874 340.992L159.914 335.424H161.078L158.498 342H157.226L154.646 335.424H155.822L157.874 340.992ZM168.253 338.46C168.253 338.668 168.241 338.888 168.217 339.12H162.961C163.001 339.768 163.221 340.276 163.621 340.644C164.029 341.004 164.521 341.184 165.097 341.184C165.569 341.184 165.961 341.076 166.273 340.86C166.593 340.636 166.817 340.34 166.945 339.972H168.121C167.945 340.604 167.593 341.12 167.065 341.52C166.537 341.912 165.881 342.108 165.097 342.108C164.473 342.108 163.913 341.968 163.417 341.688C162.929 341.408 162.545 341.012 162.265 340.5C161.985 339.98 161.845 339.38 161.845 338.7C161.845 338.02 161.981 337.424 162.253 336.912C162.525 336.4 162.905 336.008 163.393 335.736C163.889 335.456 164.457 335.316 165.097 335.316C165.721 335.316 166.273 335.452 166.753 335.724C167.233 335.996 167.601 336.372 167.857 336.852C168.121 337.324 168.253 337.86 168.253 338.46ZM167.125 338.232C167.125 337.816 167.033 337.46 166.849 337.164C166.665 336.86 166.413 336.632 166.093 336.48C165.781 336.32 165.433 336.24 165.049 336.24C164.497 336.24 164.025 336.416 163.633 336.768C163.249 337.12 163.029 337.608 162.973 338.232H167.125ZM177.63 342L174.186 338.184V342H173.094V333.636H174.186V337.512L177.642 333.636H179.022L175.23 337.824L179.058 342H177.63ZM183.245 342.108C182.629 342.108 182.069 341.968 181.565 341.688C181.069 341.408 180.677 341.012 180.389 340.5C180.109 339.98 179.969 339.38 179.969 338.7C179.969 338.028 180.113 337.436 180.401 336.924C180.697 336.404 181.097 336.008 181.601 335.736C182.105 335.456 182.669 335.316 183.293 335.316C183.917 335.316 184.481 335.456 184.985 335.736C185.489 336.008 185.885 336.4 186.173 336.912C186.469 337.424 186.617 338.02 186.617 338.7C186.617 339.38 186.465 339.98 186.161 340.5C185.865 341.012 185.461 341.408 184.949 341.688C184.437 341.968 183.869 342.108 183.245 342.108ZM183.245 341.148C183.637 341.148 184.005 341.056 184.349 340.872C184.693 340.688 184.969 340.412 185.177 340.044C185.393 339.676 185.501 339.228 185.501 338.7C185.501 338.172 185.397 337.724 185.189 337.356C184.981 336.988 184.709 336.716 184.373 336.54C184.037 336.356 183.673 336.264 183.281 336.264C182.881 336.264 182.513 336.356 182.177 336.54C181.849 336.716 181.585 336.988 181.385 337.356C181.185 337.724 181.085 338.172 181.085 338.7C181.085 339.236 181.181 339.688 181.373 340.056C181.573 340.424 181.837 340.7 182.165 340.884C182.493 341.06 182.853 341.148 183.245 341.148ZM189.245 333.12V342H188.153V333.12H189.245ZM190.798 338.688C190.798 338.016 190.934 337.428 191.206 336.924C191.478 336.412 191.85 336.016 192.322 335.736C192.802 335.456 193.334 335.316 193.918 335.316C194.494 335.316 194.994 335.44 195.418 335.688C195.842 335.936 196.158 336.248 196.366 336.624V335.424H197.47V342H196.366V340.776C196.15 341.16 195.826 341.48 195.394 341.736C194.97 341.984 194.474 342.108 193.906 342.108C193.322 342.108 192.794 341.964 192.322 341.676C191.85 341.388 191.478 340.984 191.206 340.464C190.934 339.944 190.798 339.352 190.798 338.688ZM196.366 338.7C196.366 338.204 196.266 337.772 196.066 337.404C195.866 337.036 195.594 336.756 195.25 336.564C194.914 336.364 194.542 336.264 194.134 336.264C193.726 336.264 193.354 336.36 193.018 336.552C192.682 336.744 192.414 337.024 192.214 337.392C192.014 337.76 191.914 338.192 191.914 338.688C191.914 339.192 192.014 339.632 192.214 340.008C192.414 340.376 192.682 340.66 193.018 340.86C193.354 341.052 193.726 341.148 194.134 341.148C194.542 341.148 194.914 341.052 195.25 340.86C195.594 340.66 195.866 340.376 196.066 340.008C196.266 339.632 196.366 339.196 196.366 338.7ZM205.079 335.424L201.119 345.096H199.991L201.287 341.928L198.635 335.424H199.847L201.911 340.752L203.951 335.424H205.079ZM214.112 342L210.668 338.184V342H209.576V333.636H210.668V337.512L214.124 333.636H215.504L211.712 337.824L215.54 342H214.112ZM222.692 335.424V342H221.6V341.028C221.392 341.364 221.1 341.628 220.724 341.82C220.356 342.004 219.948 342.096 219.5 342.096C218.988 342.096 218.528 341.992 218.12 341.784C217.712 341.568 217.388 341.248 217.148 340.824C216.916 340.4 216.8 339.884 216.8 339.276V335.424H217.88V339.132C217.88 339.78 218.044 340.28 218.372 340.632C218.7 340.976 219.148 341.148 219.716 341.148C220.3 341.148 220.76 340.968 221.096 340.608C221.432 340.248 221.6 339.724 221.6 339.036V335.424H222.692ZM225.728 333.12V342H224.636V333.12H225.728ZM228.781 333.12V342H227.689V333.12H228.781ZM230.334 338.688C230.334 338.016 230.47 337.428 230.742 336.924C231.014 336.412 231.386 336.016 231.858 335.736C232.338 335.456 232.87 335.316 233.454 335.316C234.03 335.316 234.53 335.44 234.954 335.688C235.378 335.936 235.694 336.248 235.902 336.624V335.424H237.006V342H235.902V340.776C235.686 341.16 235.362 341.48 234.93 341.736C234.506 341.984 234.01 342.108 233.442 342.108C232.858 342.108 232.33 341.964 231.858 341.676C231.386 341.388 231.014 340.984 230.742 340.464C230.47 339.944 230.334 339.352 230.334 338.688ZM235.902 338.7C235.902 338.204 235.802 337.772 235.602 337.404C235.402 337.036 235.13 336.756 234.786 336.564C234.45 336.364 234.078 336.264 233.67 336.264C233.262 336.264 232.89 336.36 232.554 336.552C232.218 336.744 231.95 337.024 231.75 337.392C231.55 337.76 231.45 338.192 231.45 338.688C231.45 339.192 231.55 339.632 231.75 340.008C231.95 340.376 232.218 340.66 232.554 340.86C232.89 341.052 233.262 341.148 233.67 341.148C234.078 341.148 234.45 341.052 234.786 340.86C235.13 340.66 235.402 340.376 235.602 340.008C235.802 339.632 235.902 339.196 235.902 338.7ZM242.155 335.304C242.955 335.304 243.603 335.548 244.099 336.036C244.595 336.516 244.843 337.212 244.843 338.124V342H243.763V338.28C243.763 337.624 243.599 337.124 243.271 336.78C242.943 336.428 242.495 336.252 241.927 336.252C241.351 336.252 240.891 336.432 240.547 336.792C240.211 337.152 240.043 337.676 240.043 338.364V342H238.951V335.424H240.043V336.36C240.259 336.024 240.551 335.764 240.919 335.58C241.295 335.396 241.707 335.304 242.155 335.304ZM247.819 335.424V342H246.727V335.424H247.819ZM250.872 333.12V342H249.78V333.12H250.872ZM253.925 335.424V342H252.833V335.424H253.925ZM263.794 335.304C264.306 335.304 264.762 335.412 265.162 335.628C265.562 335.836 265.878 336.152 266.11 336.576C266.342 337 266.458 337.516 266.458 338.124V342H265.378V338.28C265.378 337.624 265.214 337.124 264.886 336.78C264.566 336.428 264.13 336.252 263.578 336.252C263.01 336.252 262.558 336.436 262.222 336.804C261.886 337.164 261.718 337.688 261.718 338.376V342H260.638V338.28C260.638 337.624 260.474 337.124 260.146 336.78C259.826 336.428 259.39 336.252 258.838 336.252C258.27 336.252 257.818 336.436 257.482 336.804C257.146 337.164 256.978 337.688 256.978 338.376V342H255.886V335.424H256.978V336.372C257.194 336.028 257.482 335.764 257.842 335.58C258.21 335.396 258.614 335.304 259.054 335.304C259.606 335.304 260.094 335.428 260.518 335.676C260.942 335.924 261.258 336.288 261.466 336.768C261.65 336.304 261.954 335.944 262.378 335.688C262.802 335.432 263.274 335.304 263.794 335.304ZM267.942 338.688C267.942 338.016 268.078 337.428 268.35 336.924C268.622 336.412 268.994 336.016 269.466 335.736C269.946 335.456 270.478 335.316 271.062 335.316C271.638 335.316 272.138 335.44 272.562 335.688C272.986 335.936 273.302 336.248 273.51 336.624V335.424H274.614V342H273.51V340.776C273.294 341.16 272.97 341.48 272.538 341.736C272.114 341.984 271.618 342.108 271.05 342.108C270.466 342.108 269.938 341.964 269.466 341.676C268.994 341.388 268.622 340.984 268.35 340.464C268.078 339.944 267.942 339.352 267.942 338.688ZM273.51 338.7C273.51 338.204 273.41 337.772 273.21 337.404C273.01 337.036 272.738 336.756 272.394 336.564C272.058 336.364 271.686 336.264 271.278 336.264C270.87 336.264 270.498 336.36 270.162 336.552C269.826 336.744 269.558 337.024 269.358 337.392C269.158 337.76 269.058 338.192 269.058 338.688C269.058 339.192 269.158 339.632 269.358 340.008C269.558 340.376 269.826 340.66 270.162 340.86C270.498 341.052 270.87 341.148 271.278 341.148C271.686 341.148 272.058 341.052 272.394 340.86C272.738 340.66 273.01 340.376 273.21 340.008C273.41 339.632 273.51 339.196 273.51 338.7ZM144.572 360.084C144.02 360.084 143.524 359.988 143.084 359.796C142.652 359.596 142.312 359.324 142.064 358.98C141.816 358.628 141.688 358.224 141.68 357.768H142.844C142.884 358.16 143.044 358.492 143.324 358.764C143.612 359.028 144.028 359.16 144.572 359.16C145.092 359.16 145.5 359.032 145.796 358.776C146.1 358.512 146.252 358.176 146.252 357.768C146.252 357.448 146.164 357.188 145.988 356.988C145.812 356.788 145.592 356.636 145.328 356.532C145.064 356.428 144.708 356.316 144.26 356.196C143.708 356.052 143.264 355.908 142.928 355.764C142.6 355.62 142.316 355.396 142.076 355.092C141.844 354.78 141.728 354.364 141.728 353.844C141.728 353.388 141.844 352.984 142.076 352.632C142.308 352.28 142.632 352.008 143.048 351.816C143.472 351.624 143.956 351.528 144.5 351.528C145.284 351.528 145.924 351.724 146.42 352.116C146.924 352.508 147.208 353.028 147.272 353.676H146.072C146.032 353.356 145.864 353.076 145.568 352.836C145.272 352.588 144.88 352.464 144.392 352.464C143.936 352.464 143.564 352.584 143.276 352.824C142.988 353.056 142.844 353.384 142.844 353.808C142.844 354.112 142.928 354.36 143.096 354.552C143.272 354.744 143.484 354.892 143.732 354.996C143.988 355.092 144.344 355.204 144.8 355.332C145.352 355.484 145.796 355.636 146.132 355.788C146.468 355.932 146.756 356.16 146.996 356.472C147.236 356.776 147.356 357.192 147.356 357.72C147.356 358.128 147.248 358.512 147.032 358.872C146.816 359.232 146.496 359.524 146.072 359.748C145.648 359.972 145.148 360.084 144.572 360.084ZM148.655 356.688C148.655 356.016 148.791 355.428 149.063 354.924C149.335 354.412 149.707 354.016 150.179 353.736C150.659 353.456 151.191 353.316 151.775 353.316C152.351 353.316 152.851 353.44 153.275 353.688C153.699 353.936 154.015 354.248 154.223 354.624V353.424H155.327V360H154.223V358.776C154.007 359.16 153.683 359.48 153.251 359.736C152.827 359.984 152.331 360.108 151.763 360.108C151.179 360.108 150.651 359.964 150.179 359.676C149.707 359.388 149.335 358.984 149.063 358.464C148.791 357.944 148.655 357.352 148.655 356.688ZM154.223 356.7C154.223 356.204 154.123 355.772 153.923 355.404C153.723 355.036 153.451 354.756 153.107 354.564C152.771 354.364 152.399 354.264 151.991 354.264C151.583 354.264 151.211 354.36 150.875 354.552C150.539 354.744 150.271 355.024 150.071 355.392C149.871 355.76 149.771 356.192 149.771 356.688C149.771 357.192 149.871 357.632 150.071 358.008C150.271 358.376 150.539 358.66 150.875 358.86C151.211 359.052 151.583 359.148 151.991 359.148C152.399 359.148 152.771 359.052 153.107 358.86C153.451 358.66 153.723 358.376 153.923 358.008C154.123 357.632 154.223 357.196 154.223 356.7ZM160.536 353.304C161.032 353.304 161.48 353.412 161.88 353.628C162.28 353.836 162.592 354.152 162.816 354.576C163.048 355 163.164 355.516 163.164 356.124V360H162.084V356.28C162.084 355.624 161.92 355.124 161.592 354.78C161.264 354.428 160.816 354.252 160.248 354.252C159.672 354.252 159.212 354.432 158.868 354.792C158.532 355.152 158.364 355.676 158.364 356.364V360H157.272V351.12H158.364V354.36C158.58 354.024 158.876 353.764 159.252 353.58C159.636 353.396 160.064 353.304 160.536 353.304ZM165.612 352.356C165.404 352.356 165.228 352.284 165.084 352.14C164.94 351.996 164.868 351.82 164.868 351.612C164.868 351.404 164.94 351.228 165.084 351.084C165.228 350.94 165.404 350.868 165.612 350.868C165.812 350.868 165.98 350.94 166.116 351.084C166.26 351.228 166.332 351.404 166.332 351.612C166.332 351.82 166.26 351.996 166.116 352.14C165.98 352.284 165.812 352.356 165.612 352.356ZM166.14 353.424V360H165.048V353.424H166.14ZM169.193 354.636C169.409 354.26 169.729 353.948 170.153 353.7C170.585 353.444 171.085 353.316 171.653 353.316C172.237 353.316 172.765 353.456 173.237 353.736C173.717 354.016 174.093 354.412 174.365 354.924C174.637 355.428 174.773 356.016 174.773 356.688C174.773 357.352 174.637 357.944 174.365 358.464C174.093 358.984 173.717 359.388 173.237 359.676C172.765 359.964 172.237 360.108 171.653 360.108C171.093 360.108 170.597 359.984 170.165 359.736C169.741 359.48 169.417 359.164 169.193 358.788V363.12H168.101V353.424H169.193V354.636ZM173.657 356.688C173.657 356.192 173.557 355.76 173.357 355.392C173.157 355.024 172.885 354.744 172.541 354.552C172.205 354.36 171.833 354.264 171.425 354.264C171.025 354.264 170.653 354.364 170.309 354.564C169.973 354.756 169.701 355.04 169.493 355.416C169.293 355.784 169.193 356.212 169.193 356.7C169.193 357.196 169.293 357.632 169.493 358.008C169.701 358.376 169.973 358.66 170.309 358.86C170.653 359.052 171.025 359.148 171.425 359.148C171.833 359.148 172.205 359.052 172.541 358.86C172.885 358.66 173.157 358.376 173.357 358.008C173.557 357.632 173.657 357.192 173.657 356.688ZM185.466 351.636L182.742 356.844V360H181.65V356.844L178.914 351.636H180.126L182.19 355.872L184.254 351.636H185.466ZM186.309 356.688C186.309 356.016 186.445 355.428 186.717 354.924C186.989 354.412 187.361 354.016 187.833 353.736C188.313 353.456 188.845 353.316 189.429 353.316C190.005 353.316 190.505 353.44 190.929 353.688C191.353 353.936 191.669 354.248 191.877 354.624V353.424H192.981V360H191.877V358.776C191.661 359.16 191.337 359.48 190.905 359.736C190.481 359.984 189.985 360.108 189.417 360.108C188.833 360.108 188.305 359.964 187.833 359.676C187.361 359.388 186.989 358.984 186.717 358.464C186.445 357.944 186.309 357.352 186.309 356.688ZM191.877 356.7C191.877 356.204 191.777 355.772 191.577 355.404C191.377 355.036 191.105 354.756 190.761 354.564C190.425 354.364 190.053 354.264 189.645 354.264C189.237 354.264 188.865 354.36 188.529 354.552C188.193 354.744 187.925 355.024 187.725 355.392C187.525 355.76 187.425 356.192 187.425 356.688C187.425 357.192 187.525 357.632 187.725 358.008C187.925 358.376 188.193 358.66 188.529 358.86C188.865 359.052 189.237 359.148 189.645 359.148C190.053 359.148 190.425 359.052 190.761 358.86C191.105 358.66 191.377 358.376 191.577 358.008C191.777 357.632 191.877 357.196 191.877 356.7ZM196.019 354.636C196.235 354.26 196.555 353.948 196.979 353.7C197.411 353.444 197.911 353.316 198.479 353.316C199.063 353.316 199.591 353.456 200.063 353.736C200.543 354.016 200.919 354.412 201.191 354.924C201.463 355.428 201.599 356.016 201.599 356.688C201.599 357.352 201.463 357.944 201.191 358.464C200.919 358.984 200.543 359.388 200.063 359.676C199.591 359.964 199.063 360.108 198.479 360.108C197.919 360.108 197.423 359.984 196.991 359.736C196.567 359.48 196.243 359.164 196.019 358.788V363.12H194.927V353.424H196.019V354.636ZM200.483 356.688C200.483 356.192 200.383 355.76 200.183 355.392C199.983 355.024 199.711 354.744 199.367 354.552C199.031 354.36 198.659 354.264 198.251 354.264C197.851 354.264 197.479 354.364 197.135 354.564C196.799 354.756 196.527 355.04 196.319 355.416C196.119 355.784 196.019 356.212 196.019 356.7C196.019 357.196 196.119 357.632 196.319 358.008C196.527 358.376 196.799 358.66 197.135 358.86C197.479 359.052 197.851 359.148 198.251 359.148C198.659 359.148 199.031 359.052 199.367 358.86C199.711 358.66 199.983 358.376 200.183 358.008C200.383 357.632 200.483 357.192 200.483 356.688ZM204.228 353.424V360H203.136V353.424H204.228ZM207.281 351.12V360H206.189V351.12H207.281ZM208.834 356.688C208.834 356.016 208.97 355.428 209.242 354.924C209.514 354.412 209.886 354.016 210.358 353.736C210.838 353.456 211.37 353.316 211.954 353.316C212.53 353.316 213.03 353.44 213.454 353.688C213.878 353.936 214.194 354.248 214.402 354.624V353.424H215.506V360H214.402V358.776C214.186 359.16 213.862 359.48 213.43 359.736C213.006 359.984 212.51 360.108 211.942 360.108C211.358 360.108 210.83 359.964 210.358 359.676C209.886 359.388 209.514 358.984 209.242 358.464C208.97 357.944 208.834 357.352 208.834 356.688ZM214.402 356.7C214.402 356.204 214.302 355.772 214.102 355.404C213.902 355.036 213.63 354.756 213.286 354.564C212.95 354.364 212.578 354.264 212.17 354.264C211.762 354.264 211.39 354.36 211.054 354.552C210.718 354.744 210.45 355.024 210.25 355.392C210.05 355.76 209.95 356.192 209.95 356.688C209.95 357.192 210.05 357.632 210.25 358.008C210.45 358.376 210.718 358.66 211.054 358.86C211.39 359.052 211.762 359.148 212.17 359.148C212.578 359.148 212.95 359.052 213.286 358.86C213.63 358.66 213.902 358.376 214.102 358.008C214.302 357.632 214.402 357.196 214.402 356.7ZM218.544 354.492C218.736 354.116 219.008 353.824 219.36 353.616C219.72 353.408 220.156 353.304 220.668 353.304V354.432H220.38C219.156 354.432 218.544 355.096 218.544 356.424V360H217.452V353.424H218.544V354.492Z" fill="#3E3E3E"/>
<path d="M164.988 278.84C165.774 278.987 166.421 279.38 166.928 280.02C167.434 280.66 167.688 281.393 167.688 282.22C167.688 282.967 167.501 283.627 167.128 284.2C166.768 284.76 166.241 285.2 165.548 285.52C164.854 285.84 164.034 286 163.088 286H157.068V272.04H162.828C163.774 272.04 164.588 272.193 165.268 272.5C165.961 272.807 166.481 273.233 166.828 273.78C167.188 274.327 167.368 274.947 167.368 275.64C167.368 276.453 167.148 277.133 166.707 277.68C166.281 278.227 165.708 278.613 164.988 278.84ZM159.868 277.8H162.428C163.094 277.8 163.608 277.653 163.968 277.36C164.328 277.053 164.508 276.62 164.508 276.06C164.508 275.5 164.328 275.067 163.968 274.76C163.608 274.453 163.094 274.3 162.428 274.3H159.868V277.8ZM162.688 283.72C163.368 283.72 163.894 283.56 164.268 283.24C164.654 282.92 164.848 282.467 164.848 281.88C164.848 281.28 164.648 280.813 164.248 280.48C163.848 280.133 163.308 279.96 162.628 279.96H159.868V283.72H162.688ZM169.199 280.42C169.199 279.3 169.419 278.307 169.859 277.44C170.312 276.573 170.919 275.907 171.679 275.44C172.452 274.973 173.312 274.74 174.259 274.74C175.086 274.74 175.806 274.907 176.419 275.24C177.046 275.573 177.546 275.993 177.919 276.5V274.92H180.739V286H177.919V284.38C177.559 284.9 177.059 285.333 176.419 285.68C175.792 286.013 175.066 286.18 174.239 286.18C173.306 286.18 172.452 285.94 171.679 285.46C170.919 284.98 170.312 284.307 169.859 283.44C169.419 282.56 169.199 281.553 169.199 280.42ZM177.919 280.46C177.919 279.78 177.786 279.2 177.519 278.72C177.252 278.227 176.892 277.853 176.439 277.6C175.986 277.333 175.499 277.2 174.979 277.2C174.459 277.2 173.979 277.327 173.539 277.58C173.099 277.833 172.739 278.207 172.459 278.7C172.192 279.18 172.059 279.753 172.059 280.42C172.059 281.087 172.192 281.673 172.459 282.18C172.739 282.673 173.099 283.053 173.539 283.32C173.992 283.587 174.472 283.72 174.979 283.72C175.499 283.72 175.986 283.593 176.439 283.34C176.892 283.073 177.252 282.7 177.519 282.22C177.786 281.727 177.919 281.14 177.919 280.46ZM187.714 286.18C186.807 286.18 185.994 286.02 185.274 285.7C184.554 285.367 183.98 284.92 183.554 284.36C183.14 283.8 182.914 283.18 182.874 282.5H185.694C185.747 282.927 185.954 283.28 186.314 283.56C186.687 283.84 187.147 283.98 187.694 283.98C188.227 283.98 188.64 283.873 188.934 283.66C189.24 283.447 189.394 283.173 189.394 282.84C189.394 282.48 189.207 282.213 188.834 282.04C188.474 281.853 187.894 281.653 187.094 281.44C186.267 281.24 185.587 281.033 185.054 280.82C184.534 280.607 184.08 280.28 183.694 279.84C183.32 279.4 183.134 278.807 183.134 278.06C183.134 277.447 183.307 276.887 183.654 276.38C184.014 275.873 184.52 275.473 185.174 275.18C185.84 274.887 186.62 274.74 187.514 274.74C188.834 274.74 189.887 275.073 190.674 275.74C191.46 276.393 191.894 277.28 191.974 278.4H189.294C189.254 277.96 189.067 277.613 188.734 277.36C188.414 277.093 187.98 276.96 187.434 276.96C186.927 276.96 186.534 277.053 186.254 277.24C185.987 277.427 185.854 277.687 185.854 278.02C185.854 278.393 186.04 278.68 186.414 278.88C186.787 279.067 187.367 279.26 188.154 279.46C188.954 279.66 189.614 279.867 190.134 280.08C190.654 280.293 191.1 280.627 191.474 281.08C191.86 281.52 192.06 282.107 192.074 282.84C192.074 283.48 191.894 284.053 191.534 284.56C191.187 285.067 190.68 285.467 190.014 285.76C189.36 286.04 188.594 286.18 187.714 286.18ZM195.792 273.6C195.299 273.6 194.886 273.447 194.552 273.14C194.232 272.82 194.072 272.427 194.072 271.96C194.072 271.493 194.232 271.107 194.552 270.8C194.886 270.48 195.299 270.32 195.792 270.32C196.286 270.32 196.692 270.48 197.012 270.8C197.346 271.107 197.512 271.493 197.512 271.96C197.512 272.427 197.346 272.82 197.012 273.14C196.692 273.447 196.286 273.6 195.792 273.6ZM197.172 274.92V286H194.372V274.92H197.172ZM203.199 277.22V282.58C203.199 282.953 203.285 283.227 203.459 283.4C203.645 283.56 203.952 283.64 204.379 283.64H205.679V286H203.919C201.559 286 200.379 284.853 200.379 282.56V277.22H199.059V274.92H200.379V272.18H203.199V274.92H205.679V277.22H203.199Z" fill="#FD4C5C"/>
<g filter="url(#filter2_d_16_1285)">
<rect x="40" y="10" width="274.996" height="197.82" rx="10" fill="white"/>
</g>
<path d="M79.7174 98.26C79.7841 96.9267 80.2508 95.9 81.1174 95.18C81.9974 94.4467 83.1508 94.08 84.5774 94.08C85.5508 94.08 86.3841 94.2533 87.0774 94.6C87.7708 94.9333 88.2908 95.3933 88.6374 95.98C88.9974 96.5533 89.1774 97.2067 89.1774 97.94C89.1774 98.78 88.9574 99.4933 88.5174 100.08C88.0908 100.653 87.5774 101.04 86.9774 101.24V101.32C87.7508 101.56 88.3508 101.987 88.7774 102.6C89.2174 103.213 89.4374 104 89.4374 104.96C89.4374 105.76 89.2508 106.473 88.8774 107.1C88.5174 107.727 87.9774 108.22 87.2574 108.58C86.5508 108.927 85.6974 109.1 84.6974 109.1C83.1908 109.1 81.9641 108.72 81.0174 107.96C80.0708 107.2 79.5708 106.08 79.5174 104.6H82.2374C82.2641 105.253 82.4841 105.78 82.8974 106.18C83.3241 106.567 83.9041 106.76 84.6374 106.76C85.3174 106.76 85.8374 106.573 86.1974 106.2C86.5708 105.813 86.7574 105.32 86.7574 104.72C86.7574 103.92 86.5041 103.347 85.9974 103C85.4908 102.653 84.7041 102.48 83.6374 102.48H83.0574V100.18H83.6374C85.5308 100.18 86.4774 99.5467 86.4774 98.28C86.4774 97.7067 86.3041 97.26 85.9574 96.94C85.6241 96.62 85.1374 96.46 84.4974 96.46C83.8708 96.46 83.3841 96.6333 83.0374 96.98C82.7041 97.3133 82.5108 97.74 82.4574 98.26H79.7174ZM95.0301 106.06L92.6901 111.68H90.8901L92.1901 106.06H95.0301ZM106.008 96.54L100.688 109H97.8482L103.208 96.86H96.3682V94.46H106.008V96.54ZM108.565 105.84C109.845 104.773 110.865 103.887 111.625 103.18C112.385 102.46 113.019 101.713 113.525 100.94C114.032 100.167 114.285 99.4067 114.285 98.66C114.285 97.98 114.125 97.4467 113.805 97.06C113.485 96.6733 112.992 96.48 112.325 96.48C111.659 96.48 111.145 96.7067 110.785 97.16C110.425 97.6 110.239 98.2067 110.225 98.98H107.505C107.559 97.38 108.032 96.1667 108.925 95.34C109.832 94.5133 110.979 94.1 112.365 94.1C113.885 94.1 115.052 94.5067 115.865 95.32C116.679 96.12 117.085 97.18 117.085 98.5C117.085 99.54 116.805 100.533 116.245 101.48C115.685 102.427 115.045 103.253 114.325 103.96C113.605 104.653 112.665 105.493 111.505 106.48H117.405V108.8H107.525V106.72L108.565 105.84ZM122.41 104.9C122.516 105.487 122.756 105.94 123.13 106.26C123.516 106.567 124.03 106.72 124.67 106.72C125.496 106.72 126.096 106.38 126.47 105.7C126.843 105.007 127.03 103.847 127.03 102.22C126.723 102.647 126.29 102.98 125.73 103.22C125.183 103.46 124.59 103.58 123.95 103.58C123.096 103.58 122.323 103.407 121.63 103.06C120.95 102.7 120.41 102.173 120.01 101.48C119.61 100.773 119.41 99.92 119.41 98.92C119.41 97.44 119.85 96.2667 120.73 95.4C121.61 94.52 122.81 94.08 124.33 94.08C126.223 94.08 127.556 94.6867 128.33 95.9C129.116 97.1133 129.51 98.94 129.51 101.38C129.51 103.113 129.356 104.533 129.05 105.64C128.756 106.747 128.243 107.587 127.51 108.16C126.79 108.733 125.803 109.02 124.55 109.02C123.563 109.02 122.723 108.833 122.03 108.46C121.336 108.073 120.803 107.573 120.43 106.96C120.07 106.333 119.863 105.647 119.81 104.9H122.41ZM124.53 101.3C125.223 101.3 125.77 101.087 126.17 100.66C126.57 100.233 126.77 99.66 126.77 98.94C126.77 98.1533 126.556 97.5467 126.13 97.12C125.716 96.68 125.15 96.46 124.43 96.46C123.71 96.46 123.136 96.6867 122.71 97.14C122.296 97.58 122.09 98.1667 122.09 98.9C122.09 99.6067 122.29 100.187 122.69 100.64C123.103 101.08 123.716 101.3 124.53 101.3Z" fill="#232D42"/>
<path d="M99.3935 137.964L96.2015 145.44H94.4975L97.7135 138.156H93.6095V136.716H99.3935V137.964ZM102.828 143.676L101.424 147.048H100.344L101.124 143.676H102.828ZM104.247 140.952C104.247 139.568 104.495 138.484 104.991 137.7C105.495 136.916 106.327 136.524 107.487 136.524C108.647 136.524 109.475 136.916 109.971 137.7C110.475 138.484 110.727 139.568 110.727 140.952C110.727 142.344 110.475 143.436 109.971 144.228C109.475 145.02 108.647 145.416 107.487 145.416C106.327 145.416 105.495 145.02 104.991 144.228C104.495 143.436 104.247 142.344 104.247 140.952ZM109.071 140.952C109.071 140.36 109.031 139.864 108.951 139.464C108.879 139.056 108.727 138.724 108.495 138.468C108.271 138.212 107.935 138.084 107.487 138.084C107.039 138.084 106.699 138.212 106.467 138.468C106.243 138.724 106.091 139.056 106.011 139.464C105.939 139.864 105.903 140.36 105.903 140.952C105.903 141.56 105.939 142.072 106.011 142.488C106.083 142.896 106.235 143.228 106.467 143.484C106.699 143.732 107.039 143.856 107.487 143.856C107.935 143.856 108.275 143.732 108.507 143.484C108.739 143.228 108.891 142.896 108.963 142.488C109.035 142.072 109.071 141.56 109.071 140.952ZM112.404 140.952C112.404 139.568 112.652 138.484 113.148 137.7C113.652 136.916 114.484 136.524 115.644 136.524C116.804 136.524 117.632 136.916 118.128 137.7C118.632 138.484 118.884 139.568 118.884 140.952C118.884 142.344 118.632 143.436 118.128 144.228C117.632 145.02 116.804 145.416 115.644 145.416C114.484 145.416 113.652 145.02 113.148 144.228C112.652 143.436 112.404 142.344 112.404 140.952ZM117.228 140.952C117.228 140.36 117.188 139.864 117.108 139.464C117.036 139.056 116.884 138.724 116.652 138.468C116.428 138.212 116.092 138.084 115.644 138.084C115.196 138.084 114.856 138.212 114.624 138.468C114.4 138.724 114.248 139.056 114.168 139.464C114.096 139.864 114.06 140.36 114.06 140.952C114.06 141.56 114.096 142.072 114.168 142.488C114.24 142.896 114.392 143.228 114.624 143.484C114.856 143.732 115.196 143.856 115.644 143.856C116.092 143.856 116.432 143.732 116.664 143.484C116.896 143.228 117.048 142.896 117.12 142.488C117.192 142.072 117.228 141.56 117.228 140.952ZM120.37 138.84C120.37 138.232 120.546 137.756 120.898 137.412C121.258 137.068 121.718 136.896 122.278 136.896C122.838 136.896 123.294 137.068 123.646 137.412C124.006 137.756 124.186 138.232 124.186 138.84C124.186 139.456 124.006 139.936 123.646 140.28C123.294 140.624 122.838 140.796 122.278 140.796C121.718 140.796 121.258 140.624 120.898 140.28C120.546 139.936 120.37 139.456 120.37 138.84ZM128.074 137.04L123.358 145.44H121.726L126.43 137.04H128.074ZM122.266 137.904C121.826 137.904 121.606 138.216 121.606 138.84C121.606 139.472 121.826 139.788 122.266 139.788C122.482 139.788 122.65 139.712 122.77 139.56C122.89 139.4 122.95 139.16 122.95 138.84C122.95 138.216 122.722 137.904 122.266 137.904ZM125.638 143.628C125.638 143.012 125.814 142.536 126.166 142.2C126.526 141.856 126.986 141.684 127.546 141.684C128.106 141.684 128.558 141.856 128.902 142.2C129.254 142.536 129.43 143.012 129.43 143.628C129.43 144.244 129.254 144.724 128.902 145.068C128.558 145.412 128.106 145.584 127.546 145.584C126.978 145.584 126.518 145.412 126.166 145.068C125.814 144.724 125.638 144.244 125.638 143.628ZM127.534 142.692C127.078 142.692 126.85 143.004 126.85 143.628C126.85 144.26 127.078 144.576 127.534 144.576C127.982 144.576 128.206 144.26 128.206 143.628C128.206 143.004 127.982 142.692 127.534 142.692Z" fill="#4AAF05"/>
<path d="M82.1895 144.107V138.773" stroke="#4AAF05" stroke-width="2" stroke-linecap="round" stroke-linejoin="round"/>
<path d="M80.1895 140.773L82.1895 138.773L84.1895 140.773" stroke="#4AAF05" stroke-width="2" stroke-linecap="round" stroke-linejoin="round"/>
<rect x="174.189" y="62" width="128" height="70" fill="white"/>
<path d="M181.189 138.308C182.683 136.41 187.015 132.615 192.393 132.615C199.115 132.615 196.426 144 203.148 144C209.87 144 206.285 99.8846 213.903 99.8846C221.521 99.8846 215.696 115.538 224.658 115.538C233.621 115.538 226.899 132.615 235.414 132.615C243.928 132.615 238.102 99.8846 246.169 99.8846C254.235 99.8846 247.961 70 256.924 70C265.887 70 258.268 92.7692 267.679 92.7692C277.09 92.7692 268.575 129.058 278.434 129.058C288.293 129.058 283.364 115.538 289.189 115.538" stroke="#7A52F8" stroke-width="2"/>
<path opacity="0.4" d="M85.78 64.636L83.056 69.844V73H81.964V69.844L79.228 64.636H80.44L82.504 68.872L84.568 64.636H85.78ZM92.9318 69.46C92.9318 69.668 92.9198 69.888 92.8958 70.12H87.6398C87.6798 70.768 87.8998 71.276 88.2998 71.644C88.7078 72.004 89.1998 72.184 89.7758 72.184C90.2478 72.184 90.6398 72.076 90.9518 71.86C91.2718 71.636 91.4958 71.34 91.6238 70.972H92.7998C92.6238 71.604 92.2718 72.12 91.7438 72.52C91.2158 72.912 90.5598 73.108 89.7758 73.108C89.1518 73.108 88.5918 72.968 88.0958 72.688C87.6078 72.408 87.2238 72.012 86.9438 71.5C86.6638 70.98 86.5238 70.38 86.5238 69.7C86.5238 69.02 86.6598 68.424 86.9318 67.912C87.2038 67.4 87.5838 67.008 88.0718 66.736C88.5678 66.456 89.1358 66.316 89.7758 66.316C90.3998 66.316 90.9518 66.452 91.4318 66.724C91.9118 66.996 92.2798 67.372 92.5358 67.852C92.7998 68.324 92.9318 68.86 92.9318 69.46ZM91.8038 69.232C91.8038 68.816 91.7118 68.46 91.5278 68.164C91.3438 67.86 91.0918 67.632 90.7718 67.48C90.4598 67.32 90.1118 67.24 89.7278 67.24C89.1758 67.24 88.7038 67.416 88.3118 67.768C87.9278 68.12 87.7078 68.608 87.6518 69.232H91.8038ZM97.5772 66.304C98.3772 66.304 99.0252 66.548 99.5212 67.036C100.017 67.516 100.265 68.212 100.265 69.124V73H99.1852V69.28C99.1852 68.624 99.0212 68.124 98.6932 67.78C98.3652 67.428 97.9172 67.252 97.3492 67.252C96.7732 67.252 96.3132 67.432 95.9692 67.792C95.6332 68.152 95.4652 68.676 95.4652 69.364V73H94.3732V66.424H95.4652V67.36C95.6812 67.024 95.9732 66.764 96.3412 66.58C96.7172 66.396 97.1292 66.304 97.5772 66.304ZM102.613 65.356C102.405 65.356 102.229 65.284 102.085 65.14C101.941 64.996 101.869 64.82 101.869 64.612C101.869 64.404 101.941 64.228 102.085 64.084C102.229 63.94 102.405 63.868 102.613 63.868C102.813 63.868 102.981 63.94 103.117 64.084C103.261 64.228 103.333 64.404 103.333 64.612C103.333 64.82 103.261 64.996 103.117 65.14C102.981 65.284 102.813 65.356 102.613 65.356ZM103.141 66.424V73H102.049V66.424H103.141ZM116.685 64.696V73H115.593V66.808L112.833 73H112.065L109.293 66.796V73H108.201V64.696H109.377L112.449 71.56L115.521 64.696H116.685ZM124.369 66.424V73H123.277V72.028C123.069 72.364 122.777 72.628 122.401 72.82C122.033 73.004 121.625 73.096 121.177 73.096C120.665 73.096 120.205 72.992 119.797 72.784C119.389 72.568 119.065 72.248 118.825 71.824C118.593 71.4 118.477 70.884 118.477 70.276V66.424H119.557V70.132C119.557 70.78 119.721 71.28 120.049 71.632C120.377 71.976 120.825 72.148 121.393 72.148C121.977 72.148 122.437 71.968 122.773 71.608C123.109 71.248 123.277 70.724 123.277 70.036V66.424H124.369ZM120.493 65.536C120.317 65.536 120.165 65.476 120.037 65.356C119.917 65.236 119.857 65.088 119.857 64.912C119.857 64.736 119.917 64.588 120.037 64.468C120.165 64.34 120.317 64.276 120.493 64.276C120.661 64.276 120.805 64.34 120.925 64.468C121.053 64.588 121.117 64.736 121.117 64.912C121.117 65.088 121.053 65.236 120.925 65.356C120.805 65.476 120.661 65.536 120.493 65.536ZM122.437 65.536C122.261 65.536 122.113 65.476 121.993 65.356C121.873 65.236 121.813 65.088 121.813 64.912C121.813 64.736 121.873 64.588 121.993 64.468C122.113 64.34 122.261 64.276 122.437 64.276C122.613 64.276 122.761 64.34 122.881 64.468C123.009 64.588 123.073 64.736 123.073 64.912C123.073 65.088 123.009 65.236 122.881 65.356C122.761 65.476 122.613 65.536 122.437 65.536ZM130.941 71.212C130.941 71.724 130.749 72.156 130.365 72.508C129.981 72.852 129.469 73.048 128.829 73.096V73.696C129.301 73.688 129.677 73.788 129.957 73.996C130.237 74.204 130.377 74.5 130.377 74.884C130.377 75.26 130.241 75.56 129.969 75.784C129.697 76.008 129.345 76.12 128.913 76.12H127.533V75.412H128.697C128.961 75.412 129.153 75.372 129.273 75.292C129.401 75.212 129.465 75.076 129.465 74.884C129.465 74.7 129.401 74.568 129.273 74.488C129.153 74.408 128.961 74.368 128.697 74.368H128.097V73.084C127.449 73.012 126.921 72.792 126.513 72.424C126.105 72.056 125.885 71.604 125.853 71.068H126.981C127.013 71.396 127.165 71.664 127.437 71.872C127.717 72.08 128.081 72.184 128.529 72.184C128.945 72.184 129.273 72.092 129.513 71.908C129.753 71.724 129.873 71.492 129.873 71.212C129.873 70.924 129.745 70.712 129.489 70.576C129.233 70.432 128.837 70.292 128.301 70.156C127.813 70.028 127.413 69.9 127.101 69.772C126.797 69.636 126.533 69.44 126.309 69.184C126.093 68.92 125.985 68.576 125.985 68.152C125.985 67.816 126.085 67.508 126.285 67.228C126.485 66.948 126.769 66.728 127.137 66.568C127.505 66.4 127.925 66.316 128.397 66.316C129.125 66.316 129.713 66.5 130.161 66.868C130.609 67.236 130.849 67.74 130.881 68.38H129.789C129.765 68.036 129.625 67.76 129.369 67.552C129.121 67.344 128.785 67.24 128.361 67.24C127.969 67.24 127.657 67.324 127.425 67.492C127.193 67.66 127.077 67.88 127.077 68.152C127.077 68.368 127.145 68.548 127.281 68.692C127.425 68.828 127.601 68.94 127.809 69.028C128.025 69.108 128.321 69.2 128.697 69.304C129.169 69.432 129.553 69.56 129.849 69.688C130.145 69.808 130.397 69.992 130.605 70.24C130.821 70.488 130.933 70.812 130.941 71.212ZM133.815 67.324V71.2C133.815 71.52 133.883 71.748 134.019 71.884C134.155 72.012 134.391 72.076 134.727 72.076H135.531V73H134.547C133.939 73 133.483 72.86 133.179 72.58C132.875 72.3 132.723 71.84 132.723 71.2V67.324H131.871V66.424H132.723V64.768H133.815V66.424H135.531V67.324H133.815ZM142.854 69.46C142.854 69.668 142.842 69.888 142.818 70.12H137.562C137.602 70.768 137.822 71.276 138.222 71.644C138.63 72.004 139.122 72.184 139.698 72.184C140.17 72.184 140.562 72.076 140.874 71.86C141.194 71.636 141.418 71.34 141.546 70.972H142.722C142.546 71.604 142.194 72.12 141.666 72.52C141.138 72.912 140.482 73.108 139.698 73.108C139.074 73.108 138.514 72.968 138.018 72.688C137.53 72.408 137.146 72.012 136.866 71.5C136.586 70.98 136.446 70.38 136.446 69.7C136.446 69.02 136.582 68.424 136.854 67.912C137.126 67.4 137.506 67.008 137.994 66.736C138.49 66.456 139.058 66.316 139.698 66.316C140.322 66.316 140.874 66.452 141.354 66.724C141.834 66.996 142.202 67.372 142.458 67.852C142.722 68.324 142.854 68.86 142.854 69.46ZM141.726 69.232C141.726 68.816 141.634 68.46 141.45 68.164C141.266 67.86 141.014 67.632 140.694 67.48C140.382 67.32 140.034 67.24 139.65 67.24C139.098 67.24 138.626 67.416 138.234 67.768C137.85 68.12 137.63 68.608 137.574 69.232H141.726ZM145.387 67.492C145.579 67.116 145.851 66.824 146.203 66.616C146.563 66.408 146.999 66.304 147.511 66.304V67.432H147.223C145.999 67.432 145.387 68.096 145.387 69.424V73H144.295V66.424H145.387V67.492ZM149.336 65.356C149.128 65.356 148.952 65.284 148.808 65.14C148.664 64.996 148.592 64.82 148.592 64.612C148.592 64.404 148.664 64.228 148.808 64.084C148.952 63.94 149.128 63.868 149.336 63.868C149.536 63.868 149.704 63.94 149.84 64.084C149.984 64.228 150.056 64.404 150.056 64.612C150.056 64.82 149.984 64.996 149.84 65.14C149.704 65.284 149.536 65.356 149.336 65.356ZM149.864 66.424V73H148.772V66.424H149.864ZM152.817 64.12V73H151.725V64.12H152.817ZM160.678 69.46C160.678 69.668 160.666 69.888 160.642 70.12H155.386C155.426 70.768 155.646 71.276 156.046 71.644C156.454 72.004 156.946 72.184 157.522 72.184C157.994 72.184 158.386 72.076 158.698 71.86C159.018 71.636 159.242 71.34 159.37 70.972H160.546C160.37 71.604 160.018 72.12 159.49 72.52C158.962 72.912 158.306 73.108 157.522 73.108C156.898 73.108 156.338 72.968 155.842 72.688C155.354 72.408 154.97 72.012 154.69 71.5C154.41 70.98 154.27 70.38 154.27 69.7C154.27 69.02 154.406 68.424 154.678 67.912C154.95 67.4 155.33 67.008 155.818 66.736C156.314 66.456 156.882 66.316 157.522 66.316C158.146 66.316 158.698 66.452 159.178 66.724C159.658 66.996 160.026 67.372 160.282 67.852C160.546 68.324 160.678 68.86 160.678 69.46ZM159.55 69.232C159.55 68.816 159.458 68.46 159.274 68.164C159.09 67.86 158.838 67.632 158.518 67.48C158.206 67.32 157.858 67.24 157.474 67.24C156.922 67.24 156.45 67.416 156.058 67.768C155.674 68.12 155.454 68.608 155.398 69.232H159.55ZM163.211 67.492C163.403 67.116 163.675 66.824 164.027 66.616C164.387 66.408 164.823 66.304 165.335 66.304V67.432H165.047C163.823 67.432 163.211 68.096 163.211 69.424V73H162.119V66.424H163.211V67.492Z" fill="#232D42"/>
<g filter="url(#filter3_d_16_1285)">
<rect x="315" y="124" width="274.996" height="197.82" rx="10" fill="white"/>
</g>
<g filter="url(#filter4_d_16_1285)">
<rect x="420" y="124" width="65" height="5" fill="#7951F9"/>
</g>
<path opacity="0.8" d="M373.921 244.692C374.225 244.74 374.501 244.864 374.749 245.064C375.005 245.264 375.205 245.512 375.349 245.808C375.501 246.104 375.577 246.42 375.577 246.756C375.577 247.18 375.469 247.564 375.253 247.908C375.037 248.244 374.721 248.512 374.305 248.712C373.897 248.904 373.413 249 372.853 249H369.733V240.636H372.733C373.301 240.636 373.785 240.732 374.185 240.924C374.585 241.108 374.885 241.36 375.085 241.68C375.285 242 375.385 242.36 375.385 242.76C375.385 243.256 375.249 243.668 374.977 243.996C374.713 244.316 374.361 244.548 373.921 244.692ZM370.825 244.248H372.661C373.173 244.248 373.569 244.128 373.849 243.888C374.129 243.648 374.269 243.316 374.269 242.892C374.269 242.468 374.129 242.136 373.849 241.896C373.569 241.656 373.165 241.536 372.637 241.536H370.825V244.248ZM372.757 248.1C373.301 248.1 373.725 247.972 374.029 247.716C374.333 247.46 374.485 247.104 374.485 246.648C374.485 246.184 374.325 245.82 374.005 245.556C373.685 245.284 373.257 245.148 372.721 245.148H370.825V248.1H372.757ZM376.785 245.688C376.785 245.016 376.921 244.428 377.193 243.924C377.465 243.412 377.837 243.016 378.309 242.736C378.789 242.456 379.321 242.316 379.905 242.316C380.481 242.316 380.981 242.44 381.405 242.688C381.829 242.936 382.145 243.248 382.353 243.624V242.424H383.457V249H382.353V247.776C382.137 248.16 381.813 248.48 381.381 248.736C380.957 248.984 380.461 249.108 379.893 249.108C379.309 249.108 378.781 248.964 378.309 248.676C377.837 248.388 377.465 247.984 377.193 247.464C376.921 246.944 376.785 246.352 376.785 245.688ZM382.353 245.7C382.353 245.204 382.253 244.772 382.053 244.404C381.853 244.036 381.581 243.756 381.237 243.564C380.901 243.364 380.529 243.264 380.121 243.264C379.713 243.264 379.341 243.36 379.005 243.552C378.669 243.744 378.401 244.024 378.201 244.392C378.001 244.76 377.901 245.192 377.901 245.688C377.901 246.192 378.001 246.632 378.201 247.008C378.401 247.376 378.669 247.66 379.005 247.86C379.341 248.052 379.713 248.148 380.121 248.148C380.529 248.148 380.901 248.052 381.237 247.86C381.581 247.66 381.853 247.376 382.053 247.008C382.253 246.632 382.353 246.196 382.353 245.7ZM390.13 247.212C390.13 247.724 389.938 248.156 389.554 248.508C389.17 248.852 388.658 249.048 388.018 249.096V249.696C388.49 249.688 388.866 249.788 389.146 249.996C389.426 250.204 389.566 250.5 389.566 250.884C389.566 251.26 389.43 251.56 389.158 251.784C388.886 252.008 388.534 252.12 388.102 252.12H386.722V251.412H387.886C388.15 251.412 388.342 251.372 388.462 251.292C388.59 251.212 388.654 251.076 388.654 250.884C388.654 250.7 388.59 250.568 388.462 250.488C388.342 250.408 388.15 250.368 387.886 250.368H387.286V249.084C386.638 249.012 386.11 248.792 385.702 248.424C385.294 248.056 385.074 247.604 385.042 247.068H386.17C386.202 247.396 386.354 247.664 386.626 247.872C386.906 248.08 387.27 248.184 387.718 248.184C388.134 248.184 388.462 248.092 388.702 247.908C388.942 247.724 389.062 247.492 389.062 247.212C389.062 246.924 388.934 246.712 388.678 246.576C388.422 246.432 388.026 246.292 387.49 246.156C387.002 246.028 386.602 245.9 386.29 245.772C385.986 245.636 385.722 245.44 385.498 245.184C385.282 244.92 385.174 244.576 385.174 244.152C385.174 243.816 385.274 243.508 385.474 243.228C385.674 242.948 385.958 242.728 386.326 242.568C386.694 242.4 387.114 242.316 387.586 242.316C388.314 242.316 388.902 242.5 389.35 242.868C389.798 243.236 390.038 243.74 390.07 244.38H388.978C388.954 244.036 388.814 243.76 388.558 243.552C388.31 243.344 387.974 243.24 387.55 243.24C387.158 243.24 386.846 243.324 386.614 243.492C386.382 243.66 386.266 243.88 386.266 244.152C386.266 244.368 386.334 244.548 386.47 244.692C386.614 244.828 386.79 244.94 386.998 245.028C387.214 245.108 387.51 245.2 387.886 245.304C388.358 245.432 388.742 245.56 389.038 245.688C389.334 245.808 389.586 245.992 389.794 246.24C390.01 246.488 390.122 246.812 390.13 247.212ZM391.364 245.688C391.364 245.016 391.5 244.428 391.772 243.924C392.044 243.412 392.416 243.016 392.888 242.736C393.368 242.456 393.9 242.316 394.484 242.316C395.06 242.316 395.56 242.44 395.984 242.688C396.408 242.936 396.724 243.248 396.932 243.624V242.424H398.036V249H396.932V247.776C396.716 248.16 396.392 248.48 395.96 248.736C395.536 248.984 395.04 249.108 394.472 249.108C393.888 249.108 393.36 248.964 392.888 248.676C392.416 248.388 392.044 247.984 391.772 247.464C391.5 246.944 391.364 246.352 391.364 245.688ZM396.932 245.7C396.932 245.204 396.832 244.772 396.632 244.404C396.432 244.036 396.16 243.756 395.816 243.564C395.48 243.364 395.108 243.264 394.7 243.264C394.292 243.264 393.92 243.36 393.584 243.552C393.248 243.744 392.98 244.024 392.78 244.392C392.58 244.76 392.48 245.192 392.48 245.688C392.48 246.192 392.58 246.632 392.78 247.008C392.98 247.376 393.248 247.66 393.584 247.86C393.92 248.052 394.292 248.148 394.7 248.148C395.108 248.148 395.48 248.052 395.816 247.86C396.16 247.66 396.432 247.376 396.632 247.008C396.832 246.632 396.932 246.196 396.932 245.7ZM401.073 243.492C401.265 243.116 401.537 242.824 401.889 242.616C402.249 242.408 402.685 242.304 403.197 242.304V243.432H402.909C401.685 243.432 401.073 244.096 401.073 245.424V249H399.981V242.424H401.073V243.492ZM405.65 242.424V249H404.558V242.424H405.65ZM408.703 240.12V249H407.611V240.12H408.703ZM411.756 242.424V249H410.664V242.424H411.756ZM418.108 240.636V249H417.016V240.636H418.108ZM417.568 239.868C417.392 239.868 417.24 239.808 417.112 239.688C416.992 239.568 416.932 239.42 416.932 239.244C416.932 239.068 416.992 238.92 417.112 238.8C417.24 238.672 417.392 238.608 417.568 238.608C417.744 238.608 417.892 238.672 418.012 238.8C418.132 238.92 418.192 239.068 418.192 239.244C418.192 239.42 418.132 239.568 418.012 239.688C417.892 239.808 417.744 239.868 417.568 239.868ZM422.865 248.184C423.345 248.184 423.745 248.072 424.065 247.848C424.385 247.624 424.605 247.304 424.725 246.888H425.901C425.741 247.512 425.425 248.024 424.953 248.424C424.489 248.816 423.905 249.04 423.201 249.096V249.696C423.673 249.688 424.049 249.788 424.329 249.996C424.609 250.204 424.749 250.5 424.749 250.884C424.749 251.26 424.613 251.56 424.341 251.784C424.069 252.008 423.717 252.12 423.285 252.12H421.905V251.412H423.069C423.333 251.412 423.525 251.372 423.645 251.292C423.773 251.212 423.837 251.076 423.837 250.884C423.837 250.7 423.773 250.568 423.645 250.488C423.525 250.408 423.333 250.368 423.069 250.368H422.469V249.084C421.917 249.028 421.429 248.856 421.005 248.568C420.581 248.272 420.249 247.88 420.009 247.392C419.777 246.896 419.661 246.332 419.661 245.7C419.661 245.02 419.797 244.428 420.069 243.924C420.341 243.412 420.717 243.016 421.197 242.736C421.685 242.456 422.241 242.316 422.865 242.316C423.673 242.316 424.337 242.512 424.857 242.904C425.385 243.296 425.733 243.84 425.901 244.536H424.725C424.613 244.136 424.393 243.82 424.065 243.588C423.745 243.356 423.345 243.24 422.865 243.24C422.241 243.24 421.737 243.456 421.353 243.888C420.969 244.312 420.777 244.916 420.777 245.7C420.777 246.492 420.969 247.104 421.353 247.536C421.737 247.968 422.241 248.184 422.865 248.184ZM433.458 245.46C433.458 245.668 433.446 245.888 433.422 246.12H428.166C428.206 246.768 428.426 247.276 428.826 247.644C429.234 248.004 429.726 248.184 430.302 248.184C430.774 248.184 431.166 248.076 431.478 247.86C431.798 247.636 432.022 247.34 432.15 246.972H433.326C433.15 247.604 432.798 248.12 432.27 248.52C431.742 248.912 431.086 249.108 430.302 249.108C429.678 249.108 429.118 248.968 428.622 248.688C428.134 248.408 427.75 248.012 427.47 247.5C427.19 246.98 427.05 246.38 427.05 245.7C427.05 245.02 427.186 244.424 427.458 243.912C427.73 243.4 428.11 243.008 428.598 242.736C429.094 242.456 429.662 242.316 430.302 242.316C430.926 242.316 431.478 242.452 431.958 242.724C432.438 242.996 432.806 243.372 433.062 243.852C433.326 244.324 433.458 244.86 433.458 245.46ZM432.33 245.232C432.33 244.816 432.238 244.46 432.054 244.164C431.87 243.86 431.618 243.632 431.298 243.48C430.986 243.32 430.638 243.24 430.254 243.24C429.702 243.24 429.23 243.416 428.838 243.768C428.454 244.12 428.234 244.608 428.178 245.232H432.33ZM436.092 243.492C436.284 243.116 436.556 242.824 436.908 242.616C437.268 242.408 437.704 242.304 438.216 242.304V243.432H437.928C436.704 243.432 436.092 244.096 436.092 245.424V249H435V242.424H436.092V243.492ZM440.14 241.356C439.932 241.356 439.756 241.284 439.612 241.14C439.468 240.996 439.396 240.82 439.396 240.612C439.396 240.404 439.468 240.228 439.612 240.084C439.756 239.94 439.932 239.868 440.14 239.868C440.34 239.868 440.508 239.94 440.644 240.084C440.788 240.228 440.86 240.404 440.86 240.612C440.86 240.82 440.788 240.996 440.644 241.14C440.508 241.284 440.34 241.356 440.14 241.356ZM440.668 242.424V249H439.576V242.424H440.668ZM446.301 249L443.721 246.096V249H442.629V240.12H443.721V245.34L446.253 242.424H447.777L444.681 245.7L447.789 249H446.301ZM457.796 243.084C457.796 243.78 457.556 244.36 457.076 244.824C456.604 245.28 455.88 245.508 454.904 245.508H453.296V249H452.204V240.636H454.904C455.848 240.636 456.564 240.864 457.052 241.32C457.548 241.776 457.796 242.364 457.796 243.084ZM454.904 244.608C455.512 244.608 455.96 244.476 456.248 244.212C456.536 243.948 456.68 243.572 456.68 243.084C456.68 242.052 456.088 241.536 454.904 241.536H453.296V244.608H454.904ZM458.846 245.688C458.846 245.016 458.982 244.428 459.254 243.924C459.526 243.412 459.898 243.016 460.37 242.736C460.85 242.456 461.382 242.316 461.966 242.316C462.542 242.316 463.042 242.44 463.466 242.688C463.89 242.936 464.206 243.248 464.414 243.624V242.424H465.518V249H464.414V247.776C464.198 248.16 463.874 248.48 463.442 248.736C463.018 248.984 462.522 249.108 461.954 249.108C461.37 249.108 460.842 248.964 460.37 248.676C459.898 248.388 459.526 247.984 459.254 247.464C458.982 246.944 458.846 246.352 458.846 245.688ZM464.414 245.7C464.414 245.204 464.314 244.772 464.114 244.404C463.914 244.036 463.642 243.756 463.298 243.564C462.962 243.364 462.59 243.264 462.182 243.264C461.774 243.264 461.402 243.36 461.066 243.552C460.73 243.744 460.462 244.024 460.262 244.392C460.062 244.76 459.962 245.192 459.962 245.688C459.962 246.192 460.062 246.632 460.262 247.008C460.462 247.376 460.73 247.66 461.066 247.86C461.402 248.052 461.774 248.148 462.182 248.148C462.59 248.148 462.962 248.052 463.298 247.86C463.642 247.66 463.914 247.376 464.114 247.008C464.314 246.632 464.414 246.196 464.414 245.7ZM468.279 248.1H471.507V249H467.031V248.1L470.223 243.312H467.055V242.424H471.483V243.312L468.279 248.1ZM472.616 245.688C472.616 245.016 472.752 244.428 473.024 243.924C473.296 243.412 473.668 243.016 474.14 242.736C474.62 242.456 475.152 242.316 475.736 242.316C476.312 242.316 476.812 242.44 477.236 242.688C477.66 242.936 477.976 243.248 478.184 243.624V242.424H479.288V249H478.184V247.776C477.968 248.16 477.644 248.48 477.212 248.736C476.788 248.984 476.292 249.108 475.724 249.108C475.14 249.108 474.612 248.964 474.14 248.676C473.668 248.388 473.296 247.984 473.024 247.464C472.752 246.944 472.616 246.352 472.616 245.688ZM478.184 245.7C478.184 245.204 478.084 244.772 477.884 244.404C477.684 244.036 477.412 243.756 477.068 243.564C476.732 243.364 476.36 243.264 475.952 243.264C475.544 243.264 475.172 243.36 474.836 243.552C474.5 243.744 474.232 244.024 474.032 244.392C473.832 244.76 473.732 245.192 473.732 245.688C473.732 246.192 473.832 246.632 474.032 247.008C474.232 247.376 474.5 247.66 474.836 247.86C475.172 248.052 475.544 248.148 475.952 248.148C476.36 248.148 476.732 248.052 477.068 247.86C477.412 247.66 477.684 247.376 477.884 247.008C478.084 246.632 478.184 246.196 478.184 245.7ZM482.325 243.492C482.517 243.116 482.789 242.824 483.141 242.616C483.501 242.408 483.937 242.304 484.449 242.304V243.432H484.161C482.937 243.432 482.325 244.096 482.325 245.424V249H481.233V242.424H482.325V243.492ZM486.902 240.12V249H485.81V240.12H486.902ZM488.455 245.688C488.455 245.016 488.591 244.428 488.863 243.924C489.135 243.412 489.507 243.016 489.979 242.736C490.459 242.456 490.991 242.316 491.575 242.316C492.151 242.316 492.651 242.44 493.075 242.688C493.499 242.936 493.815 243.248 494.023 243.624V242.424H495.127V249H494.023V247.776C493.807 248.16 493.483 248.48 493.051 248.736C492.627 248.984 492.131 249.108 491.563 249.108C490.979 249.108 490.451 248.964 489.979 248.676C489.507 248.388 489.135 247.984 488.863 247.464C488.591 246.944 488.455 246.352 488.455 245.688ZM494.023 245.7C494.023 245.204 493.923 244.772 493.723 244.404C493.523 244.036 493.251 243.756 492.907 243.564C492.571 243.364 492.199 243.264 491.791 243.264C491.383 243.264 491.011 243.36 490.675 243.552C490.339 243.744 490.071 244.024 489.871 244.392C489.671 244.76 489.571 245.192 489.571 245.688C489.571 246.192 489.671 246.632 489.871 247.008C490.071 247.376 490.339 247.66 490.675 247.86C491.011 248.052 491.383 248.148 491.791 248.148C492.199 248.148 492.571 248.052 492.907 247.86C493.251 247.66 493.523 247.376 493.723 247.008C493.923 246.632 494.023 246.196 494.023 245.7ZM504.98 242.304C505.492 242.304 505.948 242.412 506.348 242.628C506.748 242.836 507.064 243.152 507.296 243.576C507.528 244 507.644 244.516 507.644 245.124V249H506.564V245.28C506.564 244.624 506.4 244.124 506.072 243.78C505.752 243.428 505.316 243.252 504.764 243.252C504.196 243.252 503.744 243.436 503.408 243.804C503.072 244.164 502.904 244.688 502.904 245.376V249H501.824V245.28C501.824 244.624 501.66 244.124 501.332 243.78C501.012 243.428 500.576 243.252 500.024 243.252C499.456 243.252 499.004 243.436 498.668 243.804C498.332 244.164 498.164 244.688 498.164 245.376V249H497.072V242.424H498.164V243.372C498.38 243.028 498.668 242.764 499.028 242.58C499.396 242.396 499.8 242.304 500.24 242.304C500.792 242.304 501.28 242.428 501.704 242.676C502.128 242.924 502.444 243.288 502.652 243.768C502.836 243.304 503.14 242.944 503.564 242.688C503.988 242.432 504.46 242.304 504.98 242.304ZM509.128 245.688C509.128 245.016 509.264 244.428 509.536 243.924C509.808 243.412 510.18 243.016 510.652 242.736C511.132 242.456 511.664 242.316 512.248 242.316C512.824 242.316 513.324 242.44 513.748 242.688C514.172 242.936 514.488 243.248 514.696 243.624V242.424H515.8V249H514.696V247.776C514.48 248.16 514.156 248.48 513.724 248.736C513.3 248.984 512.804 249.108 512.236 249.108C511.652 249.108 511.124 248.964 510.652 248.676C510.18 248.388 509.808 247.984 509.536 247.464C509.264 246.944 509.128 246.352 509.128 245.688ZM514.696 245.7C514.696 245.204 514.596 244.772 514.396 244.404C514.196 244.036 513.924 243.756 513.58 243.564C513.244 243.364 512.872 243.264 512.464 243.264C512.056 243.264 511.684 243.36 511.348 243.552C511.012 243.744 510.744 244.024 510.544 244.392C510.344 244.76 510.244 245.192 510.244 245.688C510.244 246.192 510.344 246.632 510.544 247.008C510.744 247.376 511.012 247.66 511.348 247.86C511.684 248.052 512.056 248.148 512.464 248.148C512.872 248.148 513.244 248.052 513.58 247.86C513.924 247.66 514.196 247.376 514.396 247.008C514.596 246.632 514.696 246.196 514.696 245.7ZM520.073 249.108C519.569 249.108 519.117 249.024 518.717 248.856C518.317 248.68 518.001 248.44 517.769 248.136C517.537 247.824 517.409 247.468 517.385 247.068H518.513C518.545 247.396 518.697 247.664 518.969 247.872C519.249 248.08 519.613 248.184 520.061 248.184C520.477 248.184 520.805 248.092 521.045 247.908C521.285 247.724 521.405 247.492 521.405 247.212C521.405 246.924 521.277 246.712 521.021 246.576C520.765 246.432 520.369 246.292 519.833 246.156C519.345 246.028 518.945 245.9 518.633 245.772C518.329 245.636 518.065 245.44 517.841 245.184C517.625 244.92 517.517 244.576 517.517 244.152C517.517 243.816 517.617 243.508 517.817 243.228C518.017 242.948 518.301 242.728 518.669 242.568C519.037 242.4 519.457 242.316 519.929 242.316C520.657 242.316 521.245 242.5 521.693 242.868C522.141 243.236 522.381 243.74 522.413 244.38H521.321C521.297 244.036 521.157 243.76 520.901 243.552C520.653 243.344 520.317 243.24 519.893 243.24C519.501 243.24 519.189 243.324 518.957 243.492C518.725 243.66 518.609 243.88 518.609 244.152C518.609 244.368 518.677 244.548 518.813 244.692C518.957 244.828 519.133 244.94 519.341 245.028C519.557 245.108 519.853 245.2 520.229 245.304C520.701 245.432 521.085 245.56 521.381 245.688C521.677 245.808 521.929 245.992 522.137 246.24C522.353 246.488 522.465 246.812 522.473 247.212C522.473 247.572 522.373 247.896 522.173 248.184C521.973 248.472 521.689 248.7 521.321 248.868C520.961 249.028 520.545 249.108 520.073 249.108ZM525.207 242.424V249H524.115V242.424H525.207ZM531.559 240.636V249H530.467V240.636H531.559ZM531.019 239.868C530.843 239.868 530.691 239.808 530.563 239.688C530.443 239.568 530.383 239.42 530.383 239.244C530.383 239.068 530.443 238.92 530.563 238.8C530.691 238.672 530.843 238.608 531.019 238.608C531.195 238.608 531.343 238.672 531.463 238.8C531.583 238.92 531.643 239.068 531.643 239.244C531.643 239.42 531.583 239.568 531.463 239.688C531.343 239.808 531.195 239.868 531.019 239.868ZM534.612 240.12V249H533.52V240.12H534.612ZM542.573 245.46C542.573 245.668 542.561 245.888 542.537 246.12H537.281C537.321 246.768 537.541 247.276 537.941 247.644C538.349 248.004 538.841 248.184 539.417 248.184C539.889 248.184 540.281 248.076 540.593 247.86C540.913 247.636 541.137 247.34 541.265 246.972H542.441C542.265 247.604 541.913 248.12 541.385 248.52C540.857 248.912 540.201 249.108 539.417 249.108C538.793 249.108 538.233 248.968 537.737 248.688C537.249 248.408 536.865 248.012 536.585 247.5C536.305 246.98 536.165 246.38 536.165 245.7C536.165 245.02 536.301 244.424 536.573 243.912C536.845 243.4 537.225 243.008 537.713 242.736C538.209 242.456 538.777 242.316 539.417 242.316C540.041 242.316 540.593 242.452 541.073 242.724C541.553 242.996 541.921 243.372 542.177 243.852C542.441 244.324 542.573 244.86 542.573 245.46ZM541.445 245.232C541.445 244.816 541.353 244.46 541.169 244.164C540.985 243.86 540.733 243.632 540.413 243.48C540.101 243.32 539.753 243.24 539.369 243.24C538.817 243.24 538.345 243.416 537.953 243.768C537.569 244.12 537.349 244.608 537.293 245.232H541.445ZM377.344 262.692C377.648 262.74 377.924 262.864 378.172 263.064C378.428 263.264 378.628 263.512 378.772 263.808C378.924 264.104 379 264.42 379 264.756C379 265.18 378.892 265.564 378.676 265.908C378.46 266.244 378.144 266.512 377.728 266.712C377.32 266.904 376.836 267 376.276 267H373.156V258.636H376.156C376.724 258.636 377.208 258.732 377.608 258.924C378.008 259.108 378.308 259.36 378.508 259.68C378.708 260 378.808 260.36 378.808 260.76C378.808 261.256 378.672 261.668 378.4 261.996C378.136 262.316 377.784 262.548 377.344 262.692ZM374.248 262.248H376.084C376.596 262.248 376.992 262.128 377.272 261.888C377.552 261.648 377.692 261.316 377.692 260.892C377.692 260.468 377.552 260.136 377.272 259.896C376.992 259.656 376.588 259.536 376.06 259.536H374.248V262.248ZM376.18 266.1C376.724 266.1 377.148 265.972 377.452 265.716C377.756 265.46 377.908 265.104 377.908 264.648C377.908 264.184 377.748 263.82 377.428 263.556C377.108 263.284 376.68 263.148 376.144 263.148H374.248V266.1H376.18ZM381.179 259.356C380.971 259.356 380.795 259.284 380.651 259.14C380.507 258.996 380.435 258.82 380.435 258.612C380.435 258.404 380.507 258.228 380.651 258.084C380.795 257.94 380.971 257.868 381.179 257.868C381.379 257.868 381.547 257.94 381.683 258.084C381.827 258.228 381.899 258.404 381.899 258.612C381.899 258.82 381.827 258.996 381.683 259.14C381.547 259.284 381.379 259.356 381.179 259.356ZM381.707 260.424V267H380.615V260.424H381.707ZM384.76 261.492C384.952 261.116 385.224 260.824 385.576 260.616C385.936 260.408 386.372 260.304 386.884 260.304V261.432H386.596C385.372 261.432 384.76 262.096 384.76 263.424V267H383.668V260.424H384.76V261.492ZM389.337 258.12V267H388.245V258.12H389.337ZM391.862 259.356C391.654 259.356 391.478 259.284 391.334 259.14C391.19 258.996 391.118 258.82 391.118 258.612C391.118 258.404 391.19 258.228 391.334 258.084C391.478 257.94 391.654 257.868 391.862 257.868C392.062 257.868 392.23 257.94 392.366 258.084C392.51 258.228 392.582 258.404 392.582 258.612C392.582 258.82 392.51 258.996 392.366 259.14C392.23 259.284 392.062 259.356 391.862 259.356ZM392.39 260.424V267H391.298V260.424H392.39ZM398.023 267L395.443 264.096V267H394.351V258.12H395.443V263.34L397.975 260.424H399.499L396.403 263.7L399.511 267H398.023ZM401.959 261.324V265.2C401.959 265.52 402.027 265.748 402.163 265.884C402.299 266.012 402.535 266.076 402.871 266.076H403.675V267H402.691C402.083 267 401.627 266.86 401.323 266.58C401.019 266.3 400.867 265.84 400.867 265.2V261.324H400.015V260.424H400.867V258.768H401.959V260.424H403.675V261.324H401.959ZM411.098 263.46C411.098 263.668 411.086 263.888 411.062 264.12H405.806C405.846 264.768 406.066 265.276 406.466 265.644C406.874 266.004 407.366 266.184 407.942 266.184C408.414 266.184 408.806 266.076 409.118 265.86C409.438 265.636 409.662 265.34 409.79 264.972H410.966C410.79 265.604 410.438 266.12 409.91 266.52C409.382 266.912 408.726 267.108 407.942 267.108C407.318 267.108 406.758 266.968 406.262 266.688C405.774 266.408 405.39 266.012 405.11 265.5C404.83 264.98 404.69 264.38 404.69 263.7C404.69 263.02 404.826 262.424 405.098 261.912C405.37 261.4 405.75 261.008 406.238 260.736C406.734 260.456 407.302 260.316 407.942 260.316C408.566 260.316 409.118 260.452 409.598 260.724C410.078 260.996 410.446 261.372 410.702 261.852C410.966 262.324 411.098 262.86 411.098 263.46ZM409.97 263.232C409.97 262.816 409.878 262.46 409.694 262.164C409.51 261.86 409.258 261.632 408.938 261.48C408.626 261.32 408.278 261.24 407.894 261.24C407.342 261.24 406.87 261.416 406.478 261.768C406.094 262.12 405.874 262.608 405.818 263.232H409.97ZM421.53 261.084C421.53 261.78 421.29 262.36 420.81 262.824C420.338 263.28 419.614 263.508 418.638 263.508H417.03V267H415.938V258.636H418.638C419.582 258.636 420.298 258.864 420.786 259.32C421.282 259.776 421.53 260.364 421.53 261.084ZM418.638 262.608C419.246 262.608 419.694 262.476 419.982 262.212C420.27 261.948 420.414 261.572 420.414 261.084C420.414 260.052 419.822 259.536 418.638 259.536H417.03V262.608H418.638ZM425.856 267.108C425.24 267.108 424.68 266.968 424.176 266.688C423.68 266.408 423.288 266.012 423 265.5C422.72 264.98 422.58 264.38 422.58 263.7C422.58 263.028 422.724 262.436 423.012 261.924C423.308 261.404 423.708 261.008 424.212 260.736C424.716 260.456 425.28 260.316 425.904 260.316C426.528 260.316 427.092 260.456 427.596 260.736C428.1 261.008 428.496 261.4 428.784 261.912C429.08 262.424 429.228 263.02 429.228 263.7C429.228 264.38 429.076 264.98 428.772 265.5C428.476 266.012 428.072 266.408 427.56 266.688C427.048 266.968 426.48 267.108 425.856 267.108ZM425.856 266.148C426.248 266.148 426.616 266.056 426.96 265.872C427.304 265.688 427.58 265.412 427.788 265.044C428.004 264.676 428.112 264.228 428.112 263.7C428.112 263.172 428.008 262.724 427.8 262.356C427.592 261.988 427.32 261.716 426.984 261.54C426.648 261.356 426.284 261.264 425.892 261.264C425.492 261.264 425.124 261.356 424.788 261.54C424.46 261.716 424.196 261.988 423.996 262.356C423.796 262.724 423.696 263.172 423.696 263.7C423.696 264.236 423.792 264.688 423.984 265.056C424.184 265.424 424.448 265.7 424.776 265.884C425.104 266.06 425.464 266.148 425.856 266.148ZM432.095 261.324V265.2C432.095 265.52 432.163 265.748 432.299 265.884C432.435 266.012 432.671 266.076 433.007 266.076H433.811V267H432.827C432.219 267 431.763 266.86 431.459 266.58C431.155 266.3 431.003 265.84 431.003 265.2V261.324H430.151V260.424H431.003V258.768H432.095V260.424H433.811V261.324H432.095ZM434.827 263.688C434.827 263.016 434.963 262.428 435.235 261.924C435.507 261.412 435.879 261.016 436.351 260.736C436.831 260.456 437.363 260.316 437.947 260.316C438.523 260.316 439.023 260.44 439.447 260.688C439.871 260.936 440.187 261.248 440.395 261.624V260.424H441.499V267H440.395V265.776C440.179 266.16 439.855 266.48 439.423 266.736C438.999 266.984 438.503 267.108 437.935 267.108C437.351 267.108 436.823 266.964 436.351 266.676C435.879 266.388 435.507 265.984 435.235 265.464C434.963 264.944 434.827 264.352 434.827 263.688ZM440.395 263.7C440.395 263.204 440.295 262.772 440.095 262.404C439.895 262.036 439.623 261.756 439.279 261.564C438.943 261.364 438.571 261.264 438.163 261.264C437.755 261.264 437.383 261.36 437.047 261.552C436.711 261.744 436.443 262.024 436.243 262.392C436.043 262.76 435.943 263.192 435.943 263.688C435.943 264.192 436.043 264.632 436.243 265.008C436.443 265.376 436.711 265.66 437.047 265.86C437.383 266.052 437.755 266.148 438.163 266.148C438.571 266.148 438.943 266.052 439.279 265.86C439.623 265.66 439.895 265.376 440.095 265.008C440.295 264.632 440.395 264.196 440.395 263.7ZM446.648 260.304C447.448 260.304 448.096 260.548 448.592 261.036C449.088 261.516 449.336 262.212 449.336 263.124V267H448.256V263.28C448.256 262.624 448.092 262.124 447.764 261.78C447.436 261.428 446.988 261.252 446.42 261.252C445.844 261.252 445.384 261.432 445.04 261.792C444.704 262.152 444.536 262.676 444.536 263.364V267H443.444V260.424H444.536V261.36C444.752 261.024 445.044 260.764 445.412 260.58C445.788 260.396 446.2 260.304 446.648 260.304ZM453.548 267.108C453.044 267.108 452.592 267.024 452.192 266.856C451.792 266.68 451.476 266.44 451.244 266.136C451.012 265.824 450.884 265.468 450.86 265.068H451.988C452.02 265.396 452.172 265.664 452.444 265.872C452.724 266.08 453.088 266.184 453.536 266.184C453.952 266.184 454.28 266.092 454.52 265.908C454.76 265.724 454.88 265.492 454.88 265.212C454.88 264.924 454.752 264.712 454.496 264.576C454.24 264.432 453.844 264.292 453.308 264.156C452.82 264.028 452.42 263.9 452.108 263.772C451.804 263.636 451.54 263.44 451.316 263.184C451.1 262.92 450.992 262.576 450.992 262.152C450.992 261.816 451.092 261.508 451.292 261.228C451.492 260.948 451.776 260.728 452.144 260.568C452.512 260.4 452.932 260.316 453.404 260.316C454.132 260.316 454.72 260.5 455.168 260.868C455.616 261.236 455.856 261.74 455.888 262.38H454.796C454.772 262.036 454.632 261.76 454.376 261.552C454.128 261.344 453.792 261.24 453.368 261.24C452.976 261.24 452.664 261.324 452.432 261.492C452.2 261.66 452.084 261.88 452.084 262.152C452.084 262.368 452.152 262.548 452.288 262.692C452.432 262.828 452.608 262.94 452.816 263.028C453.032 263.108 453.328 263.2 453.704 263.304C454.176 263.432 454.56 263.56 454.856 263.688C455.152 263.808 455.404 263.992 455.612 264.24C455.828 264.488 455.94 264.812 455.948 265.212C455.948 265.572 455.848 265.896 455.648 266.184C455.448 266.472 455.164 266.7 454.796 266.868C454.436 267.028 454.02 267.108 453.548 267.108ZM458.153 259.356C457.945 259.356 457.769 259.284 457.625 259.14C457.481 258.996 457.409 258.82 457.409 258.612C457.409 258.404 457.481 258.228 457.625 258.084C457.769 257.94 457.945 257.868 458.153 257.868C458.353 257.868 458.521 257.94 458.657 258.084C458.801 258.228 458.873 258.404 458.873 258.612C458.873 258.82 458.801 258.996 458.657 259.14C458.521 259.284 458.353 259.356 458.153 259.356ZM458.681 260.424V267H457.589V260.424H458.681ZM466.306 260.424L462.346 270.096H461.218L462.514 266.928L459.862 260.424H461.074L463.138 265.752L465.178 260.424H466.306ZM473.504 263.46C473.504 263.668 473.492 263.888 473.468 264.12H468.212C468.252 264.768 468.472 265.276 468.872 265.644C469.28 266.004 469.772 266.184 470.348 266.184C470.82 266.184 471.212 266.076 471.524 265.86C471.844 265.636 472.068 265.34 472.196 264.972H473.372C473.196 265.604 472.844 266.12 472.316 266.52C471.788 266.912 471.132 267.108 470.348 267.108C469.724 267.108 469.164 266.968 468.668 266.688C468.18 266.408 467.796 266.012 467.516 265.5C467.236 264.98 467.096 264.38 467.096 263.7C467.096 263.02 467.232 262.424 467.504 261.912C467.776 261.4 468.156 261.008 468.644 260.736C469.14 260.456 469.708 260.316 470.348 260.316C470.972 260.316 471.524 260.452 472.004 260.724C472.484 260.996 472.852 261.372 473.108 261.852C473.372 262.324 473.504 262.86 473.504 263.46ZM472.376 263.232C472.376 262.816 472.284 262.46 472.1 262.164C471.916 261.86 471.664 261.632 471.344 261.48C471.032 261.32 470.684 261.24 470.3 261.24C469.748 261.24 469.276 261.416 468.884 261.768C468.5 262.12 468.28 262.608 468.224 263.232H472.376ZM476.137 258.12V267H475.045V258.12H476.137ZM489.882 258.696V267H488.79V260.808L486.03 267H485.262L482.49 260.796V267H481.398V258.696H482.574L485.646 265.56L488.718 258.696H489.882ZM497.666 260.424V267H496.574V266.028C496.366 266.364 496.074 266.628 495.698 266.82C495.33 267.004 494.922 267.096 494.474 267.096C493.962 267.096 493.502 266.992 493.094 266.784C492.686 266.568 492.362 266.248 492.122 265.824C491.89 265.4 491.774 264.884 491.774 264.276V260.424H492.854V264.132C492.854 264.78 493.018 265.28 493.346 265.632C493.674 265.976 494.122 266.148 494.69 266.148C495.274 266.148 495.734 265.968 496.07 265.608C496.406 265.248 496.574 264.724 496.574 264.036V260.424H497.666ZM493.79 259.536C493.614 259.536 493.462 259.476 493.334 259.356C493.214 259.236 493.154 259.088 493.154 258.912C493.154 258.736 493.214 258.588 493.334 258.468C493.462 258.34 493.614 258.276 493.79 258.276C493.958 258.276 494.102 258.34 494.222 258.468C494.35 258.588 494.414 258.736 494.414 258.912C494.414 259.088 494.35 259.236 494.222 259.356C494.102 259.476 493.958 259.536 493.79 259.536ZM495.734 259.536C495.558 259.536 495.41 259.476 495.29 259.356C495.17 259.236 495.11 259.088 495.11 258.912C495.11 258.736 495.17 258.588 495.29 258.468C495.41 258.34 495.558 258.276 495.734 258.276C495.91 258.276 496.058 258.34 496.178 258.468C496.306 258.588 496.37 258.736 496.37 258.912C496.37 259.088 496.306 259.236 496.178 259.356C496.058 259.476 495.91 259.536 495.734 259.536ZM504.338 265.212C504.338 265.724 504.146 266.156 503.762 266.508C503.378 266.852 502.866 267.048 502.226 267.096V267.696C502.698 267.688 503.074 267.788 503.354 267.996C503.634 268.204 503.774 268.5 503.774 268.884C503.774 269.26 503.638 269.56 503.366 269.784C503.094 270.008 502.742 270.12 502.31 270.12H500.93V269.412H502.094C502.358 269.412 502.55 269.372 502.67 269.292C502.798 269.212 502.862 269.076 502.862 268.884C502.862 268.7 502.798 268.568 502.67 268.488C502.55 268.408 502.358 268.368 502.094 268.368H501.494V267.084C500.846 267.012 500.318 266.792 499.91 266.424C499.502 266.056 499.282 265.604 499.25 265.068H500.378C500.41 265.396 500.562 265.664 500.834 265.872C501.114 266.08 501.478 266.184 501.926 266.184C502.342 266.184 502.67 266.092 502.91 265.908C503.15 265.724 503.27 265.492 503.27 265.212C503.27 264.924 503.142 264.712 502.886 264.576C502.63 264.432 502.234 264.292 501.698 264.156C501.21 264.028 500.81 263.9 500.498 263.772C500.194 263.636 499.93 263.44 499.706 263.184C499.49 262.92 499.382 262.576 499.382 262.152C499.382 261.816 499.482 261.508 499.682 261.228C499.882 260.948 500.166 260.728 500.534 260.568C500.902 260.4 501.322 260.316 501.794 260.316C502.522 260.316 503.11 260.5 503.558 260.868C504.006 261.236 504.246 261.74 504.278 262.38H503.186C503.162 262.036 503.022 261.76 502.766 261.552C502.518 261.344 502.182 261.24 501.758 261.24C501.366 261.24 501.054 261.324 500.822 261.492C500.59 261.66 500.474 261.88 500.474 262.152C500.474 262.368 500.542 262.548 500.678 262.692C500.822 262.828 500.998 262.94 501.206 263.028C501.422 263.108 501.718 263.2 502.094 263.304C502.566 263.432 502.95 263.56 503.246 263.688C503.542 263.808 503.794 263.992 504.002 264.24C504.218 264.488 504.33 264.812 504.338 265.212ZM507.311 261.324V265.2C507.311 265.52 507.379 265.748 507.515 265.884C507.651 266.012 507.887 266.076 508.223 266.076H509.027V267H508.043C507.435 267 506.979 266.86 506.675 266.58C506.371 266.3 506.219 265.84 506.219 265.2V261.324H505.367V260.424H506.219V258.768H507.311V260.424H509.027V261.324H507.311ZM516.45 263.46C516.45 263.668 516.438 263.888 516.414 264.12H511.158C511.198 264.768 511.418 265.276 511.818 265.644C512.226 266.004 512.718 266.184 513.294 266.184C513.766 266.184 514.158 266.076 514.47 265.86C514.79 265.636 515.014 265.34 515.142 264.972H516.318C516.142 265.604 515.79 266.12 515.262 266.52C514.734 266.912 514.078 267.108 513.294 267.108C512.67 267.108 512.11 266.968 511.614 266.688C511.126 266.408 510.742 266.012 510.462 265.5C510.182 264.98 510.042 264.38 510.042 263.7C510.042 263.02 510.178 262.424 510.45 261.912C510.722 261.4 511.102 261.008 511.59 260.736C512.086 260.456 512.654 260.316 513.294 260.316C513.918 260.316 514.47 260.452 514.95 260.724C515.43 260.996 515.798 261.372 516.054 261.852C516.318 262.324 516.45 262.86 516.45 263.46ZM515.322 263.232C515.322 262.816 515.23 262.46 515.046 262.164C514.862 261.86 514.61 261.632 514.29 261.48C513.978 261.32 513.63 261.24 513.246 261.24C512.694 261.24 512.222 261.416 511.83 261.768C511.446 262.12 511.226 262.608 511.17 263.232H515.322ZM519.084 261.492C519.276 261.116 519.548 260.824 519.9 260.616C520.26 260.408 520.696 260.304 521.208 260.304V261.432H520.92C519.696 261.432 519.084 262.096 519.084 263.424V267H517.992V260.424H519.084V261.492ZM523.132 259.356C522.924 259.356 522.748 259.284 522.604 259.14C522.46 258.996 522.388 258.82 522.388 258.612C522.388 258.404 522.46 258.228 522.604 258.084C522.748 257.94 522.924 257.868 523.132 257.868C523.332 257.868 523.5 257.94 523.636 258.084C523.78 258.228 523.852 258.404 523.852 258.612C523.852 258.82 523.78 258.996 523.636 259.14C523.5 259.284 523.332 259.356 523.132 259.356ZM523.66 260.424V267H522.568V260.424H523.66ZM526.713 258.12V267H525.621V258.12H526.713ZM534.674 263.46C534.674 263.668 534.662 263.888 534.638 264.12H529.382C529.422 264.768 529.642 265.276 530.042 265.644C530.45 266.004 530.942 266.184 531.518 266.184C531.99 266.184 532.382 266.076 532.694 265.86C533.014 265.636 533.238 265.34 533.366 264.972H534.542C534.366 265.604 534.014 266.12 533.486 266.52C532.958 266.912 532.302 267.108 531.518 267.108C530.894 267.108 530.334 266.968 529.838 266.688C529.35 266.408 528.966 266.012 528.686 265.5C528.406 264.98 528.266 264.38 528.266 263.7C528.266 263.02 528.402 262.424 528.674 261.912C528.946 261.4 529.326 261.008 529.814 260.736C530.31 260.456 530.878 260.316 531.518 260.316C532.142 260.316 532.694 260.452 533.174 260.724C533.654 260.996 534.022 261.372 534.278 261.852C534.542 262.324 534.674 262.86 534.674 263.46ZM533.546 263.232C533.546 262.816 533.454 262.46 533.27 262.164C533.086 261.86 532.834 261.632 532.514 261.48C532.202 261.32 531.854 261.24 531.47 261.24C530.918 261.24 530.446 261.416 530.054 261.768C529.67 262.12 529.45 262.608 529.394 263.232H533.546ZM537.308 261.492C537.5 261.116 537.772 260.824 538.124 260.616C538.484 260.408 538.92 260.304 539.432 260.304V261.432H539.144C537.92 261.432 537.308 262.096 537.308 263.424V267H536.216V260.424H537.308V261.492Z" fill="#3E3E3E"/>
<path d="M427.094 174.26C427.161 172.927 427.627 171.9 428.494 171.18C429.374 170.447 430.527 170.08 431.954 170.08C432.927 170.08 433.761 170.253 434.454 170.6C435.147 170.933 435.667 171.393 436.014 171.98C436.374 172.553 436.554 173.207 436.554 173.94C436.554 174.78 436.334 175.493 435.894 176.08C435.467 176.653 434.954 177.04 434.354 177.24V177.32C435.127 177.56 435.727 177.987 436.154 178.6C436.594 179.213 436.814 180 436.814 180.96C436.814 181.76 436.627 182.473 436.254 183.1C435.894 183.727 435.354 184.22 434.634 184.58C433.927 184.927 433.074 185.1 432.074 185.1C430.567 185.1 429.341 184.72 428.394 183.96C427.447 183.2 426.947 182.08 426.894 180.6H429.614C429.641 181.253 429.861 181.78 430.274 182.18C430.701 182.567 431.281 182.76 432.014 182.76C432.694 182.76 433.214 182.573 433.574 182.2C433.947 181.813 434.134 181.32 434.134 180.72C434.134 179.92 433.881 179.347 433.374 179C432.867 178.653 432.081 178.48 431.014 178.48H430.434V176.18H431.014C432.907 176.18 433.854 175.547 433.854 174.28C433.854 173.707 433.681 173.26 433.334 172.94C433.001 172.62 432.514 172.46 431.874 172.46C431.247 172.46 430.761 172.633 430.414 172.98C430.081 173.313 429.887 173.74 429.834 174.26H427.094ZM442.407 182.06L440.067 187.68H438.267L439.567 182.06H442.407ZM453.385 172.54L448.065 185H445.225L450.585 172.86H443.745V170.46H453.385V172.54ZM455.942 181.84C457.222 180.773 458.242 179.887 459.002 179.18C459.762 178.46 460.395 177.713 460.902 176.94C461.409 176.167 461.662 175.407 461.662 174.66C461.662 173.98 461.502 173.447 461.182 173.06C460.862 172.673 460.369 172.48 459.702 172.48C459.035 172.48 458.522 172.707 458.162 173.16C457.802 173.6 457.615 174.207 457.602 174.98H454.882C454.935 173.38 455.409 172.167 456.302 171.34C457.209 170.513 458.355 170.1 459.742 170.1C461.262 170.1 462.429 170.507 463.242 171.32C464.055 172.12 464.462 173.18 464.462 174.5C464.462 175.54 464.182 176.533 463.622 177.48C463.062 178.427 462.422 179.253 461.702 179.96C460.982 180.653 460.042 181.493 458.882 182.48H464.782V184.8H454.902V182.72L455.942 181.84ZM469.786 180.9C469.893 181.487 470.133 181.94 470.506 182.26C470.893 182.567 471.406 182.72 472.046 182.72C472.873 182.72 473.473 182.38 473.846 181.7C474.22 181.007 474.406 179.847 474.406 178.22C474.1 178.647 473.666 178.98 473.106 179.22C472.56 179.46 471.966 179.58 471.326 179.58C470.473 179.58 469.7 179.407 469.006 179.06C468.326 178.7 467.786 178.173 467.386 177.48C466.986 176.773 466.786 175.92 466.786 174.92C466.786 173.44 467.226 172.267 468.106 171.4C468.986 170.52 470.186 170.08 471.706 170.08C473.6 170.08 474.933 170.687 475.706 171.9C476.493 173.113 476.886 174.94 476.886 177.38C476.886 179.113 476.733 180.533 476.426 181.64C476.133 182.747 475.62 183.587 474.886 184.16C474.166 184.733 473.18 185.02 471.926 185.02C470.94 185.02 470.1 184.833 469.406 184.46C468.713 184.073 468.18 183.573 467.806 182.96C467.446 182.333 467.24 181.647 467.186 180.9H469.786ZM471.906 177.3C472.6 177.3 473.146 177.087 473.546 176.66C473.946 176.233 474.146 175.66 474.146 174.94C474.146 174.153 473.933 173.547 473.506 173.12C473.093 172.68 472.526 172.46 471.806 172.46C471.086 172.46 470.513 172.687 470.086 173.14C469.673 173.58 469.466 174.167 469.466 174.9C469.466 175.607 469.666 176.187 470.066 176.64C470.48 177.08 471.093 177.3 471.906 177.3Z" fill="#7951F9"/>
<defs>
<filter id="filter0_d_16_1285" x="0" y="222" width="355" height="259" filterUnits="userSpaceOnUse" color-interpolation-filters="sRGB">
<feFlood flood-opacity="0" result="BackgroundImageFix"/>
<feColorMatrix in="SourceAlpha" type="matrix" values="0 0 0 0 0 0 0 0 0 0 0 0 0 0 0 0 0 0 127 0" result="hardAlpha"/>
<feOffset dy="30"/>
<feGaussianBlur stdDeviation="20"/>
<feColorMatrix type="matrix" values="0 0 0 0 0.62862 0 0 0 0 0.557604 0 0 0 0 0.841667 0 0 0 0.1 0"/>
<feBlend mode="normal" in2="BackgroundImageFix" result="effect1_dropShadow_16_1285"/>
<feBlend mode="normal" in="SourceGraphic" in2="effect1_dropShadow_16_1285" result="shape"/>
</filter>
<filter id="filter1_d_16_1285" x="105" y="202" width="145" height="85" filterUnits="userSpaceOnUse" color-interpolation-filters="sRGB">
<feFlood flood-opacity="0" result="BackgroundImageFix"/>
<feColorMatrix in="SourceAlpha" type="matrix" values="0 0 0 0 0 0 0 0 0 0 0 0 0 0 0 0 0 0 127 0" result="hardAlpha"/>
<feOffset dy="10"/>
<feGaussianBlur stdDeviation="20"/>
<feColorMatrix type="matrix" values="0 0 0 0 0.62862 0 0 0 0 0.557604 0 0 0 0 0.841667 0 0 0 0.2 0"/>
<feBlend mode="normal" in2="BackgroundImageFix" result="effect1_dropShadow_16_1285"/>
<feBlend mode="normal" in="SourceGraphic" in2="effect1_dropShadow_16_1285" result="shape"/>
</filter>
<filter id="filter2_d_16_1285" x="0" y="0" width="354.996" height="277.82" filterUnits="userSpaceOnUse" color-interpolation-filters="sRGB">
<feFlood flood-opacity="0" result="BackgroundImageFix"/>
<feColorMatrix in="SourceAlpha" type="matrix" values="0 0 0 0 0 0 0 0 0 0 0 0 0 0 0 0 0 0 127 0" result="hardAlpha"/>
<feOffset dy="30"/>
<feGaussianBlur stdDeviation="20"/>
<feColorMatrix type="matrix" values="0 0 0 0 0.62862 0 0 0 0 0.557604 0 0 0 0 0.841667 0 0 0 0.1 0"/>
<feBlend mode="normal" in2="BackgroundImageFix" result="effect1_dropShadow_16_1285"/>
<feBlend mode="normal" in="SourceGraphic" in2="effect1_dropShadow_16_1285" result="shape"/>
</filter>
<filter id="filter3_d_16_1285" x="135" y="64" width="514.996" height="437.82" filterUnits="userSpaceOnUse" color-interpolation-filters="sRGB">
<feFlood flood-opacity="0" result="BackgroundImageFix"/>
<feColorMatrix in="SourceAlpha" type="matrix" values="0 0 0 0 0 0 0 0 0 0 0 0 0 0 0 0 0 0 127 0" result="hardAlpha"/>
<feOffset dx="-60" dy="60"/>
<feGaussianBlur stdDeviation="60"/>
<feColorMatrix type="matrix" values="0 0 0 0 0.62862 0 0 0 0 0.557604 0 0 0 0 0.841667 0 0 0 0.2 0"/>
<feBlend mode="normal" in2="BackgroundImageFix" result="effect1_dropShadow_16_1285"/>
<feBlend mode="normal" in="SourceGraphic" in2="effect1_dropShadow_16_1285" result="shape"/>
</filter>
<filter id="filter4_d_16_1285" x="380" y="94" width="145" height="85" filterUnits="userSpaceOnUse" color-interpolation-filters="sRGB">
<feFlood flood-opacity="0" result="BackgroundImageFix"/>
<feColorMatrix in="SourceAlpha" type="matrix" values="0 0 0 0 0 0 0 0 0 0 0 0 0 0 0 0 0 0 127 0" result="hardAlpha"/>
<feOffset dy="10"/>
<feGaussianBlur stdDeviation="20"/>
<feColorMatrix type="matrix" values="0 0 0 0 0.62862 0 0 0 0 0.557604 0 0 0 0 0.841667 0 0 0 0.2 0"/>
<feBlend mode="normal" in2="BackgroundImageFix" result="effect1_dropShadow_16_1285"/>
<feBlend mode="normal" in="SourceGraphic" in2="effect1_dropShadow_16_1285" result="shape"/>
</filter>
</defs>
</svg>
