<svg width="603" height="483" viewBox="0 0 603 483" fill="none" xmlns="http://www.w3.org/2000/svg">
<rect x="83.6025" y="115" width="274.996" height="197.82" rx="20" transform="rotate(25 83.6025 115)" fill="white"/>
<mask id="mask0_16_1320" style="mask-type:alpha" maskUnits="userSpaceOnUse" x="6" y="121" width="321" height="283">
<rect x="83.6025" y="115" width="274.996" height="197.82" rx="20" transform="rotate(25 83.6025 115)" fill="white"/>
</mask>
<g mask="url(#mask0_16_1320)">
<path opacity="0.3" d="M39.1011 274.906L24.7832 305.611C22.3582 310.811 24.6081 316.993 29.8085 319.418C35.0089 321.843 41.1905 319.593 43.6155 314.393L57.9335 283.688C60.3585 278.487 58.1085 272.306 52.9081 269.881C47.7077 267.456 41.5261 269.706 39.1011 274.906Z" fill="#7951F9"/>
<path opacity="0.3" d="M72.5926 281.751L54.9147 319.662C52.4897 324.862 54.7396 331.044 59.94 333.469C65.1404 335.894 71.322 333.644 73.747 328.443L91.4249 290.533C93.8499 285.332 91.6 279.151 86.3996 276.726C81.1992 274.301 75.0175 276.551 72.5926 281.751Z" fill="#7951F9"/>
<path opacity="0.3" d="M91.3845 320.12L85.0465 333.712C82.6215 338.912 84.8714 345.094 90.0718 347.519C95.2722 349.944 101.454 347.694 103.879 342.494L110.217 328.901C112.642 323.701 110.392 317.519 105.192 315.094C99.9912 312.669 93.8095 314.919 91.3845 320.12Z" fill="#7951F9"/>
<path opacity="0.3" d="M160.156 251.308L115.179 347.763C112.754 352.963 115.004 359.145 120.204 361.57C125.404 363.995 131.586 361.745 134.011 356.544L178.988 260.09C181.413 254.89 179.163 248.708 173.963 246.283C168.763 243.858 162.581 246.108 160.156 251.308Z" fill="#7951F9"/>
<path opacity="0.3" d="M171.347 305.423L145.145 361.615C142.694 366.87 144.968 373.118 150.224 375.568C155.479 378.019 161.727 375.745 164.177 370.49L190.38 314.298C192.83 309.043 190.557 302.795 185.301 300.345C180.045 297.894 173.798 300.168 171.347 305.423Z" fill="#7951F9"/>
<path opacity="0.3" d="M188.92 346.961L175.442 375.864C173.017 381.065 175.267 387.246 180.467 389.671C185.667 392.096 191.849 389.846 194.274 384.646L207.752 355.742C210.177 350.542 207.927 344.36 202.727 341.935C197.526 339.51 191.345 341.76 188.92 346.961Z" fill="#7951F9"/>
<path d="M265.879 261.234L205.867 389.93C203.417 395.186 205.69 401.433 210.946 403.884C216.202 406.335 222.449 404.061 224.9 398.805L284.912 270.109C287.362 264.854 285.089 258.607 279.833 256.156C274.577 253.705 268.33 255.979 265.879 261.234Z" fill="#7951F9"/>
</g>
<path d="M97.2922 152.323L91.3924 164.975L88.8548 163.791L94.7545 151.139L97.2922 152.323ZM96.5897 150.516C96.2513 150.359 96.0209 150.111 95.8983 149.775C95.7758 149.438 95.7934 149.101 95.9512 148.762C96.109 148.424 96.3562 148.193 96.6928 148.071C97.0351 147.936 97.3755 147.948 97.7138 148.106C98.0522 148.263 98.2798 148.517 98.3967 148.865C98.5313 149.208 98.5197 149.548 98.362 149.886C98.2042 150.225 97.9509 150.452 97.6022 150.569C97.2655 150.692 96.928 150.674 96.5897 150.516ZM97.6663 168.099C96.8446 167.716 96.1751 167.227 95.6578 166.633C95.1461 166.026 94.8153 165.379 94.6652 164.691C94.5273 164.009 94.5839 163.351 94.835 162.718L97.3908 163.91C97.2588 164.319 97.2968 164.727 97.5047 165.133C97.7248 165.544 98.0825 165.865 98.578 166.096C99.0613 166.322 99.481 166.4 99.837 166.33C100.205 166.267 100.46 166.084 100.6 165.782C100.753 165.455 100.696 165.135 100.431 164.82C100.184 164.499 99.7425 164.072 99.1076 163.541C98.4429 163.01 97.914 162.535 97.5208 162.117C97.1397 161.704 96.8668 161.216 96.7024 160.654C96.55 160.097 96.6315 159.481 96.9471 158.804C97.2063 158.248 97.6001 157.814 98.1284 157.501C98.6688 157.194 99.297 157.046 100.013 157.056C100.741 157.072 101.51 157.269 102.32 157.646C103.516 158.204 104.33 158.951 104.761 159.888C105.198 160.812 105.216 161.799 104.815 162.848L102.386 161.715C102.536 161.3 102.513 160.907 102.318 160.536C102.141 160.159 101.805 159.855 101.309 159.624C100.85 159.41 100.454 159.328 100.121 159.379C99.8007 159.436 99.57 159.615 99.4292 159.917C99.2714 160.256 99.3194 160.594 99.5732 160.933C99.8327 161.26 100.277 161.681 100.905 162.194C101.546 162.714 102.056 163.18 102.438 163.593C102.819 164.006 103.083 164.497 103.229 165.066C103.394 165.628 103.327 166.244 103.029 166.914C102.759 167.494 102.353 167.938 101.813 168.245C101.285 168.558 100.657 168.706 99.9283 168.69C99.2179 168.668 98.4639 168.471 97.6663 168.099ZM110.442 164.17L108.177 169.028C108.019 169.366 107.982 169.65 108.066 169.881C108.168 170.105 108.412 170.307 108.798 170.487L109.977 171.037L108.979 173.175L107.384 172.432C105.245 171.434 104.66 169.896 105.63 167.818L107.886 162.978L106.69 162.42L107.662 160.336L108.858 160.894L110.016 158.41L112.572 159.602L111.414 162.085L113.662 163.134L112.69 165.218L110.442 164.17ZM112.51 168.665C112.983 167.65 113.603 166.843 114.368 166.243C115.145 165.649 115.976 165.301 116.862 165.2C117.76 165.104 118.638 165.256 119.496 165.656C120.246 166.005 120.828 166.46 121.243 167.022C121.67 167.589 121.946 168.181 122.07 168.798L122.737 167.366L125.293 168.557L120.611 178.599L118.055 177.407L118.74 175.939C118.193 176.258 117.557 176.44 116.831 176.484C116.122 176.521 115.393 176.365 114.644 176.015C113.798 175.621 113.126 175.043 112.628 174.281C112.142 173.525 111.877 172.658 111.832 171.681C111.805 170.698 112.031 169.692 112.51 168.665ZM120.396 172.387C120.684 171.77 120.808 171.188 120.769 170.64C120.736 170.081 120.567 169.59 120.264 169.169C119.965 168.736 119.581 168.409 119.109 168.189C118.638 167.97 118.15 167.882 117.644 167.925C117.138 167.969 116.654 168.155 116.192 168.484C115.747 168.806 115.384 169.27 115.102 169.874C114.82 170.478 114.693 171.066 114.721 171.638C114.766 172.203 114.932 172.7 115.218 173.127C115.516 173.561 115.895 173.884 116.354 174.099C116.825 174.318 117.32 174.409 117.838 174.371C118.361 174.321 118.845 174.135 119.29 173.813C119.74 173.478 120.109 173.003 120.396 172.387ZM129.754 173.175L127.489 178.033C127.331 178.371 127.294 178.656 127.378 178.886C127.48 179.11 127.724 179.312 128.111 179.493L129.289 180.042L128.291 182.181L126.696 181.437C124.557 180.44 123.973 178.902 124.942 176.823L127.198 171.984L126.002 171.426L126.974 169.341L128.171 169.899L129.328 167.416L131.884 168.608L130.726 171.091L132.974 172.139L132.002 174.223L129.754 173.175ZM136.644 172.394C136.197 172.185 135.887 171.872 135.715 171.453C135.56 171.028 135.581 170.604 135.778 170.181C135.975 169.758 136.284 169.475 136.703 169.332C137.141 169.183 137.583 169.213 138.03 169.421C138.477 169.63 138.778 169.946 138.933 170.372C139.106 170.791 139.093 171.211 138.896 171.634C138.699 172.057 138.381 172.343 137.944 172.493C137.524 172.635 137.091 172.602 136.644 172.394ZM137.337 174.173L132.654 184.215L130.117 183.032L134.799 172.99L137.337 174.173ZM138.928 187.339C138.106 186.956 137.437 186.468 136.92 185.873C136.408 185.267 136.077 184.62 135.927 183.932C135.789 183.25 135.846 182.592 136.097 181.959L138.653 183.151C138.521 183.56 138.559 183.967 138.767 184.373C138.987 184.785 139.344 185.106 139.84 185.337C140.323 185.562 140.743 185.64 141.099 185.571C141.467 185.507 141.721 185.324 141.862 185.022C142.014 184.696 141.958 184.376 141.693 184.061C141.445 183.739 141.004 183.313 140.369 182.781C139.705 182.251 139.176 181.776 138.783 181.357C138.401 180.944 138.129 180.457 137.964 179.894C137.812 179.338 137.893 178.721 138.209 178.045C138.468 177.489 138.862 177.054 139.39 176.742C139.931 176.435 140.559 176.286 141.275 176.297C142.003 176.312 142.772 176.509 143.582 176.887C144.778 177.445 145.592 178.192 146.023 179.129C146.46 180.053 146.478 181.04 146.077 182.089L143.648 180.956C143.798 180.54 143.775 180.147 143.58 179.777C143.403 179.4 143.066 179.096 142.571 178.865C142.112 178.651 141.716 178.569 141.383 178.62C141.063 178.676 140.832 178.856 140.691 179.158C140.533 179.496 140.581 179.835 140.835 180.174C141.094 180.501 141.538 180.921 142.167 181.435C142.807 181.954 143.318 182.421 143.699 182.834C144.08 183.247 144.344 183.738 144.491 184.306C144.656 184.868 144.589 185.485 144.291 186.155C144.021 186.735 143.615 187.179 143.075 187.486C142.547 187.798 141.918 187.947 141.19 187.931C140.48 187.908 139.726 187.711 138.928 187.339ZM151.704 183.411L149.439 188.268C149.281 188.607 149.244 188.891 149.328 189.121C149.429 189.345 149.673 189.547 150.06 189.728L151.238 190.277L150.241 192.416L148.646 191.672C146.507 190.675 145.922 189.137 146.891 187.059L149.148 182.219L147.952 181.661L148.924 179.576L150.12 180.134L151.278 177.651L153.834 178.843L152.676 181.326L154.924 182.374L153.952 184.459L151.704 183.411ZM158.594 182.629C158.147 182.421 157.837 182.107 157.664 181.688C157.509 181.263 157.531 180.839 157.728 180.416C157.925 179.993 158.234 179.71 158.653 179.567C159.09 179.418 159.533 179.448 159.98 179.656C160.427 179.865 160.728 180.182 160.883 180.607C161.055 181.026 161.043 181.447 160.846 181.87C160.648 182.293 160.331 182.579 159.894 182.728C159.474 182.87 159.041 182.838 158.594 182.629ZM159.286 184.409L154.604 194.451L152.066 193.267L156.749 183.225L159.286 184.409ZM163.056 198.392L161.643 192.525L159.649 196.803L157.111 195.62L163.366 182.206L165.903 183.39L162.345 191.021L167.703 188.333L171.002 189.872L164.229 192.848L166.355 199.93L163.056 198.392Z" fill="#232D42"/>
<g filter="url(#filter0_d_16_1320)">
<rect x="319.603" y="34" width="274.996" height="197.82" rx="20" transform="rotate(25 319.603 34)" fill="white"/>
</g>
<circle cx="437.721" cy="227.002" r="4" transform="rotate(25 437.721 227.002)" fill="#7951F9"/>
<circle cx="418.28" cy="268.692" r="4" transform="rotate(25 418.28 268.692)" fill="#25CADF"/>
<circle cx="428.001" cy="247.847" r="4" transform="rotate(25 428.001 247.847)" fill="#EC9C27"/>
<circle cx="364.769" cy="164.296" r="61" transform="rotate(25 364.769 164.296)" fill="#F9F7FF"/>
<path d="M425.491 158.486C426.686 170.97 424.004 183.519 417.809 194.424C411.615 205.328 402.211 214.059 390.876 219.427C379.542 224.794 366.829 226.538 354.468 224.42C342.107 222.302 330.699 216.426 321.798 207.591L364.769 164.296L425.491 158.486Z" fill="#7951F9"/>
<path d="M343.906 106.975C352.755 103.754 362.229 102.626 371.587 103.678C380.945 104.731 389.933 107.936 397.845 113.042C405.758 118.148 412.38 125.017 417.195 133.111C422.009 141.204 424.884 150.302 425.595 159.692L364.769 164.296L343.906 106.975Z" fill="#FD4C5C"/>
<path d="M322.203 207.99C316.088 202.032 311.291 194.857 308.123 186.929L364.769 164.296L322.203 207.99Z" fill="#25CADF"/>
<g filter="url(#filter1_dd_16_1320)">
<path d="M368.685 127.503C369.619 125.501 371.999 124.635 374.001 125.568L396.658 136.134C398.661 137.067 399.527 139.447 398.593 141.45L394.198 150.875C393.264 152.877 390.884 153.744 388.882 152.81L381.826 149.52L375.609 151.696L373.281 145.535L366.225 142.244C364.222 141.311 363.356 138.931 364.29 136.929L368.685 127.503Z" fill="white"/>
</g>
<path d="M372.306 136.309C373.12 136.078 373.768 135.879 374.249 135.714C374.74 135.546 375.178 135.338 375.565 135.092C375.952 134.846 376.228 134.548 376.391 134.197C376.56 133.835 376.605 133.51 376.525 133.223C376.452 132.938 376.231 132.71 375.862 132.538C375.506 132.372 375.175 132.357 374.868 132.494C374.57 132.627 374.327 132.882 374.137 133.257L373.14 132.792C373.48 132.111 373.93 131.682 374.492 131.502C375.063 131.32 375.653 131.371 376.263 131.655C376.922 131.962 377.351 132.383 377.551 132.917C377.756 133.455 377.718 134.025 377.436 134.629C377.233 135.064 376.926 135.432 376.513 135.733C376.11 136.03 375.68 136.267 375.222 136.444C374.773 136.617 374.216 136.802 373.551 136.999L372.974 137.172L375.847 138.511L375.445 139.372L371.041 137.318L371.391 136.566L372.306 136.309ZM383.6 136.323L380.563 134.907L379.722 136.711C379.928 136.601 380.182 136.546 380.483 136.547C380.79 136.55 381.086 136.618 381.37 136.751C381.877 136.987 382.238 137.288 382.45 137.652C382.669 138.018 382.767 138.399 382.745 138.793C382.729 139.19 382.635 139.573 382.464 139.942C382.255 140.389 381.982 140.747 381.643 141.016C381.313 141.281 380.93 141.433 380.492 141.472C380.061 141.514 379.598 141.419 379.102 141.188C378.443 140.881 377.991 140.471 377.744 139.959C377.498 139.447 377.46 138.903 377.633 138.329L378.639 138.798C378.573 139.113 378.615 139.409 378.766 139.685C378.919 139.955 379.168 140.171 379.513 140.331C379.942 140.531 380.322 140.551 380.655 140.389C380.994 140.231 381.263 139.937 381.463 139.508C381.666 139.073 381.712 138.69 381.602 138.359C381.494 138.022 381.229 137.755 380.806 137.558C380.51 137.42 380.224 137.378 379.948 137.434C379.681 137.486 379.443 137.617 379.234 137.829L378.255 137.373L380.034 133.557L384.022 135.416L383.6 136.323ZM390.687 141.868C390.047 143.239 389.31 144.127 388.474 144.532C387.644 144.939 386.643 144.87 385.47 144.323C384.963 144.086 384.409 143.736 383.809 143.272L384.785 141.179L383.291 140.857L383.633 140.123L385.127 140.445L385.487 139.674L383.952 139.345L384.282 138.638L385.816 138.967L386.729 137.01L387.79 137.504L386.991 139.217L388.638 139.566L388.3 140.291L386.657 139.933L386.298 140.704L387.891 141.049L387.553 141.774L385.96 141.429L385.245 142.96C385.425 143.096 385.651 143.227 385.923 143.353C386.744 143.736 387.45 143.753 388.04 143.403C388.63 143.053 389.159 142.376 389.627 141.373L390.687 141.868Z" fill="#232D42"/>
<path d="M447.672 135.351L446.092 129.123L443.989 133.633L441.959 132.686L446.679 122.565L448.709 123.511L446.592 128.05L452.392 125.229L454.843 126.372L448.327 129.442L450.239 136.547L447.672 135.351ZM462.904 132.673L459.158 140.707L457.114 139.753L457.587 138.738C457.164 138.964 456.692 139.08 456.172 139.085C455.666 139.084 455.167 138.969 454.674 138.739C454.045 138.446 453.55 138.056 453.189 137.57C452.831 137.074 452.632 136.504 452.591 135.861C452.563 135.213 452.717 134.531 453.05 133.816L455.248 129.103L457.278 130.049L455.216 134.472C454.918 135.11 454.848 135.678 455.004 136.174C455.166 136.662 455.522 137.034 456.073 137.291C456.633 137.552 457.152 137.588 457.629 137.398C458.11 137.199 458.5 136.78 458.797 136.142L460.86 131.72L462.904 132.673ZM468.195 131.857L463.191 142.587L461.161 141.641L466.165 130.91L468.195 131.857ZM472.231 133.739L467.227 144.469L465.197 143.523L470.201 132.792L472.231 133.739ZM470.598 141.115C470.976 140.303 471.472 139.658 472.084 139.178C472.705 138.703 473.371 138.425 474.079 138.343C474.798 138.266 475.5 138.388 476.187 138.708C476.786 138.987 477.252 139.352 477.584 139.801C477.925 140.254 478.146 140.728 478.245 141.221L478.78 140.076L480.824 141.029L477.078 149.063L475.033 148.109L475.581 146.935C475.144 147.19 474.635 147.335 474.054 147.37C473.487 147.4 472.904 147.275 472.304 146.996C471.628 146.68 471.09 146.218 470.692 145.608C470.303 145.003 470.091 144.31 470.055 143.528C470.034 142.741 470.214 141.937 470.598 141.115ZM476.906 144.093C477.136 143.6 477.236 143.134 477.205 142.696C477.178 142.248 477.043 141.856 476.8 141.519C476.562 141.172 476.254 140.911 475.877 140.735C475.5 140.559 475.109 140.489 474.704 140.524C474.3 140.559 473.913 140.707 473.543 140.971C473.187 141.228 472.897 141.599 472.671 142.082C472.446 142.566 472.344 143.036 472.366 143.494C472.402 143.946 472.535 144.343 472.764 144.685C473.002 145.032 473.305 145.291 473.673 145.462C474.05 145.638 474.445 145.711 474.86 145.68C475.279 145.64 475.666 145.491 476.021 145.233C476.382 144.966 476.677 144.586 476.906 144.093ZM487.313 143.914C488.27 144.36 488.901 145.025 489.207 145.909C489.517 146.784 489.42 147.762 488.915 148.845L486.717 153.558L484.687 152.611L486.756 148.174C487.054 147.536 487.122 146.973 486.961 146.486C486.804 145.989 486.45 145.612 485.899 145.355C485.338 145.094 484.813 145.061 484.322 145.255C483.845 145.445 483.458 145.859 483.16 146.497L481.091 150.934L479.061 149.987L482.807 141.954L484.837 142.901L484.37 143.901C484.803 143.679 485.273 143.569 485.779 143.569C486.299 143.564 486.81 143.679 487.313 143.914ZM494.511 147.412L490.765 155.445L488.735 154.498L492.481 146.465L494.511 147.412ZM494.205 152.159C494.592 151.328 495.1 150.681 495.727 150.22C496.358 149.75 497.052 149.485 497.809 149.426C498.571 149.358 499.338 149.504 500.112 149.864C501.108 150.329 501.812 150.963 502.225 151.768C502.653 152.568 502.768 153.469 502.571 154.471L500.382 153.45C500.428 153.048 500.356 152.685 500.166 152.361C499.99 152.032 499.699 151.773 499.293 151.583C498.713 151.313 498.154 151.311 497.618 151.579C497.085 151.837 496.639 152.352 496.278 153.126C495.922 153.89 495.814 154.563 495.954 155.146C496.099 155.72 496.461 156.142 497.041 156.412C497.863 156.795 498.571 156.678 499.164 156.061L501.354 157.082C500.726 157.848 499.964 158.334 499.068 158.54C498.171 158.746 497.23 158.619 496.244 158.159C495.471 157.798 494.863 157.309 494.422 156.691C493.985 156.064 493.741 155.362 493.691 154.585C493.646 153.799 493.817 152.99 494.205 152.159ZM507.44 153.441L503.694 161.474L501.664 160.527L505.41 152.494L507.44 153.441ZM512.817 152.664L507.813 163.395L505.783 162.448L510.787 151.717L512.817 152.664ZM511.183 160.041C511.562 159.229 512.057 158.583 512.669 158.103C513.291 157.628 513.956 157.35 514.665 157.269C515.383 157.192 516.086 157.313 516.772 157.633C517.372 157.913 517.837 158.277 518.169 158.726C518.511 159.18 518.732 159.653 518.831 160.147L519.365 159.001L521.41 159.955L517.664 167.988L515.619 167.035L516.167 165.86C515.73 166.115 515.221 166.261 514.64 166.296C514.073 166.325 513.489 166.201 512.89 165.921C512.213 165.605 511.676 165.143 511.277 164.533C510.889 163.929 510.676 163.235 510.641 162.454C510.619 161.667 510.8 160.862 511.183 160.041ZM517.492 163.018C517.722 162.525 517.821 162.059 517.79 161.621C517.764 161.173 517.629 160.781 517.386 160.444C517.147 160.097 516.84 159.836 516.463 159.66C516.086 159.485 515.695 159.414 515.29 159.449C514.885 159.484 514.498 159.633 514.128 159.896C513.773 160.154 513.482 160.524 513.257 161.008C513.031 161.491 512.93 161.962 512.952 162.419C512.988 162.871 513.121 163.269 513.349 163.611C513.588 163.957 513.891 164.216 514.258 164.388C514.635 164.563 515.031 164.636 515.445 164.606C515.864 164.566 516.251 164.417 516.607 164.159C516.967 163.891 517.262 163.511 517.492 163.018ZM524.841 163.073C525.3 162.769 525.794 162.594 526.323 162.546C526.861 162.502 527.401 162.607 527.942 162.859L526.948 164.991L526.411 164.741C525.773 164.443 525.22 164.368 524.752 164.514C524.293 164.665 523.89 165.113 523.543 165.857L521.677 169.859L519.646 168.913L523.393 160.879L525.423 161.826L524.841 163.073Z" fill="#232D42"/>
<defs>
<filter id="filter0_d_16_1320" x="82.5737" y="0.57373" width="519.687" height="482.357" filterUnits="userSpaceOnUse" color-interpolation-filters="sRGB">
<feFlood flood-opacity="0" result="BackgroundImageFix"/>
<feColorMatrix in="SourceAlpha" type="matrix" values="0 0 0 0 0 0 0 0 0 0 0 0 0 0 0 0 0 0 127 0" result="hardAlpha"/>
<feOffset dx="-60" dy="60"/>
<feGaussianBlur stdDeviation="50"/>
<feColorMatrix type="matrix" values="0 0 0 0 0.62862 0 0 0 0 0.557604 0 0 0 0 0.841667 0 0 0 0.3 0"/>
<feBlend mode="normal" in2="BackgroundImageFix" result="effect1_dropShadow_16_1320"/>
<feBlend mode="normal" in="SourceGraphic" in2="effect1_dropShadow_16_1320" result="shape"/>
</filter>
<filter id="filter1_dd_16_1320" x="339.914" y="105.193" width="83.0548" height="75.9927" filterUnits="userSpaceOnUse" color-interpolation-filters="sRGB">
<feFlood flood-opacity="0" result="BackgroundImageFix"/>
<feColorMatrix in="SourceAlpha" type="matrix" values="0 0 0 0 0 0 0 0 0 0 0 0 0 0 0 0 0 0 127 0" result="hardAlpha"/>
<feOffset dy="4"/>
<feGaussianBlur stdDeviation="12"/>
<feColorMatrix type="matrix" values="0 0 0 0 0 0 0 0 0 0 0 0 0 0 0 0 0 0 0.08 0"/>
<feBlend mode="normal" in2="BackgroundImageFix" result="effect1_dropShadow_16_1320"/>
<feColorMatrix in="SourceAlpha" type="matrix" values="0 0 0 0 0 0 0 0 0 0 0 0 0 0 0 0 0 0 127 0" result="hardAlpha"/>
<feOffset dy="2"/>
<feGaussianBlur stdDeviation="2"/>
<feColorMatrix type="matrix" values="0 0 0 0 0 0 0 0 0 0 0 0 0 0 0 0 0 0 0.08 0"/>
<feBlend mode="normal" in2="effect1_dropShadow_16_1320" result="effect2_dropShadow_16_1320"/>
<feBlend mode="normal" in="SourceGraphic" in2="effect2_dropShadow_16_1320" result="shape"/>
</filter>
</defs>
</svg>
