<svg width="1440" height="470" viewBox="0 0 1440 470" fill="none" xmlns="http://www.w3.org/2000/svg">
<mask id="mask0_87_713" style="mask-type:alpha" maskUnits="userSpaceOnUse" x="0" y="0" width="1440" height="470">
<path d="M0 0H1440V469.979C1440 469.979 1003.75 470.026 720.5 469.979C438.023 469.932 0 469.979 0 469.979V0Z" fill="#F4F1FF"/>
</mask>
<g mask="url(#mask0_87_713)">
<path d="M347.792 -303.706C365.63 -324.785 401.461 -335.205 427.821 -326.979L1613.14 42.9021C1639.5 51.128 1646.41 74.8843 1628.57 95.9633L1439.09 319.866C1421.25 340.943 1385.55 351.403 1359.19 343.18C1247.92 308.465 965.188 220.256 766.846 158.333C568.946 96.5477 285.158 8.00858 173.613 -26.7906C147.249 -35.0154 140.474 -58.7309 158.314 -79.8114L347.792 -303.706Z" fill="#E6DEFF"/>
<path d="M1009.87 143.826C1027.71 122.747 1063.54 112.327 1089.9 120.553L1690.57 307.993C1716.93 316.219 1723.84 339.975 1706 361.054L1491.25 614.805C1473.42 635.881 1437.68 646.33 1411.33 638.108C1341.11 616.205 1207.71 574.59 1111.14 544.426C1014.76 514.323 880.893 472.561 810.485 450.599C784.118 442.375 777.295 418.644 795.136 397.562L1009.87 143.826Z" fill="#F0ECFF"/>
<path d="M-420.95 233.697C-403.112 212.618 -367.281 202.198 -340.921 210.424L259.749 397.864C286.11 406.09 293.018 429.846 275.18 450.925L60.4362 704.676C42.5999 725.752 6.86691 736.201 -19.4925 727.979C-89.7123 706.076 -223.111 664.461 -319.681 634.297C-416.055 604.194 -549.925 562.431 -620.333 540.47C-646.7 532.246 -653.523 508.515 -635.681 487.433L-420.95 233.697Z" fill="#F0ECFF"/>
</g>
</svg>
