<svg width="70" height="53" viewBox="0 0 70 53" fill="none" xmlns="http://www.w3.org/2000/svg">
<path d="M70 2.52381C70 1.85445 69.7366 1.21251 69.2678 0.739207C68.7989 0.265901 68.163 0 67.5 0H2.5C1.83696 0 1.20107 0.265901 0.732233 0.739207C0.263392 1.21251 0 1.85445 0 2.52381V7.57143H70V2.52381Z" fill="#E6DEFF"/>
<path d="M0 50.4762C0 51.1456 0.263392 51.7875 0.732233 52.2608C1.20107 52.7341 1.83696 53 2.5 53H67.5C68.163 53 68.7989 52.7341 69.2678 52.2608C69.7366 51.7875 70 51.1456 70 50.4762V12.619H0V50.4762ZM8.225 38.5891L20.725 25.97C21.1934 25.4999 21.827 25.2361 22.4875 25.2361C23.148 25.2361 23.7816 25.4999 24.25 25.97L30.175 31.9514L40.925 23.2695C41.3398 22.935 41.8492 22.7425 42.3796 22.7198C42.91 22.6971 43.4337 22.8455 43.875 23.1433L49.675 27.03L58.225 18.3986C58.7033 17.9851 59.3184 17.7691 59.9476 17.7936C60.5768 17.8181 61.1737 18.0814 61.6189 18.5309C62.0641 18.9804 62.325 19.5829 62.3493 20.2181C62.3736 20.8533 62.1596 21.4743 61.75 21.9571L51.75 32.0524C51.3432 32.4658 50.8072 32.7243 50.233 32.7841C49.6588 32.8439 49.0819 32.7013 48.6 32.3805L42.625 28.3676L31.55 37.3019C31.071 37.6899 30.4674 37.8863 29.8541 37.8537C29.2409 37.8211 28.661 37.5618 28.225 37.1252L22.5 31.3205L11.775 42.1729C11.2967 42.5863 10.6816 42.8024 10.0524 42.7779C9.42318 42.7533 8.82633 42.49 8.38109 42.0405C7.93585 41.5911 7.67502 40.9885 7.65072 40.3533C7.62642 39.7182 7.84043 39.0971 8.25 38.6143L8.225 38.5891Z" fill="#D3C5FF"/>
</svg>
