<svg width="70" height="70" viewBox="0 0 70 70" fill="none" xmlns="http://www.w3.org/2000/svg">
<path fill-rule="evenodd" clip-rule="evenodd" d="M12.3546 23.0081V46.9886C-4.1374 46.9886 -4.09901 23.0081 12.3546 23.0081ZM19.208 46.9886V67.3878C19.208 68.488 20.0748 69.0678 21.1059 69.0678C25.765 69.0678 29.576 65.2892 29.576 60.6698V46.9886H38.9951L63.6876 69.7316C64.3313 70.3264 65.3579 69.8653 65.3686 69.0076V41.9726C68.0932 40.8105 70 38.1259 70 34.9988C70 31.8708 68.0932 29.1871 65.3686 28.0241V0.990875C65.3686 0.0889422 64.2563 -0.333258 63.6412 0.309336L38.9995 23.0081H16.3567V46.9886H19.208Z" fill="#D3C5FF"/>
<path fill-rule="evenodd" clip-rule="evenodd" d="M12.3546 23.0081V46.9885C-4.1374 46.9885 -4.09901 23.0081 12.3546 23.0081Z" fill="#D3C5FF"/>
<path d="M19.2083 67.3883V46.9891H29.5763V60.6703C29.5763 65.2897 25.7653 69.0683 21.1062 69.0683C20.0751 69.0683 19.2083 68.4885 19.2083 67.3883Z" fill="#E6DEFF"/>
<path d="M70.0002 34.9993C70.0002 38.1264 68.0934 40.811 65.3688 41.9731V28.0246C68.0934 29.1876 70.0002 31.8713 70.0002 34.9993Z" fill="#E6DEFF"/>
</svg>
