<svg width="70" height="70" viewBox="0 0 70 70" fill="none" xmlns="http://www.w3.org/2000/svg">
<path d="M5.80654 34.0932H14.1326C14.3747 34.0933 14.6069 34.1895 14.7781 34.3607C14.9493 34.5319 15.0455 34.7641 15.0456 35.0063C15.0456 36.3059 15.5618 37.5523 16.4807 38.4712C17.3996 39.3902 18.6458 39.9065 19.9453 39.9065C21.2448 39.9065 22.4911 39.3902 23.41 38.4712C24.3289 37.5523 24.8451 36.3059 24.8451 35.0063C24.8452 34.7642 24.9414 34.5319 25.1125 34.3607C25.2837 34.1895 25.5159 34.0933 25.758 34.0932H34.0841V25.6933C34.0842 25.4512 34.1804 25.219 34.3516 25.0478C34.5228 24.8766 34.7549 24.7804 34.9971 24.7804C36.2949 24.7804 37.5396 24.2647 38.4573 23.3469C39.375 22.4291 39.8906 21.1843 39.8906 19.8864C39.8906 18.5884 39.375 17.3436 38.4573 16.4258C37.5396 15.508 36.2949 14.9924 34.9971 14.9924C34.7549 14.9924 34.5228 14.8962 34.3516 14.725C34.1804 14.5537 34.0842 14.3216 34.0841 14.0794V5.8132H26.6092C26.3899 7.42504 25.5938 8.90276 24.3686 9.97265C23.1433 11.0425 21.5719 11.6321 19.9453 11.6321C18.3188 11.6321 16.7473 11.0425 15.5221 9.97265C14.2968 8.90276 13.5008 7.42504 13.2815 5.8132H5.80654V14.0794C5.80647 14.3215 5.71026 14.5537 5.53905 14.7249C5.36784 14.8961 5.13566 14.9924 4.89354 14.9924C3.5957 14.9924 2.351 15.508 1.43329 16.4258C0.515568 17.3436 0 18.5884 0 19.8864C0 21.1843 0.515568 22.4291 1.43329 23.3469C2.351 24.2647 3.5957 24.7803 4.89354 24.7803C5.13566 24.7804 5.36784 24.8766 5.53904 25.0478C5.71025 25.219 5.80647 25.4512 5.80654 25.6933V34.0932ZM28.2776 49.9883L28.278 49.9841L28.2776 49.98C28.2798 48.3565 28.8686 46.7885 29.9357 45.565C31.0028 44.3415 32.4761 43.545 34.0841 43.3223V35.9193H26.6092C26.3867 37.5287 25.5894 39.0032 24.3645 40.0705C23.1396 41.1378 21.5699 41.7257 19.9453 41.7257C18.3208 41.7257 16.7511 41.1378 15.5262 40.0705C14.3013 39.0032 13.504 37.5287 13.2815 35.9193H5.80654V43.3223C7.41822 43.5416 8.89581 44.3377 9.96561 45.563C11.0354 46.7883 11.6249 48.3598 11.6249 49.9865C11.6249 51.6132 11.0354 53.1847 9.96561 54.41C8.89581 55.6353 7.41822 56.4314 5.80654 56.6507V64.1868H14.1326C14.3747 64.1869 14.6069 64.2831 14.7781 64.4543C14.9493 64.6255 15.0455 64.8577 15.0456 65.0998C15.0456 66.3994 15.5618 67.6458 16.4807 68.5648C17.3996 69.4837 18.6458 70 19.9453 70C21.2448 70 22.4911 69.4837 23.41 68.5648C24.3289 67.6458 24.8451 66.3994 24.8451 65.0998C24.8452 64.8577 24.9414 64.6255 25.1126 64.4543C25.2837 64.2831 25.5159 64.1869 25.758 64.1868H34.0841V56.659C32.4746 56.4343 31.0006 55.6354 29.9336 54.4095C28.8665 53.1837 28.2784 51.6135 28.2776 49.9883ZM65.1006 45.095C64.8584 45.0949 64.6263 44.9987 64.4551 44.8274C64.2839 44.6562 64.1877 44.424 64.1876 44.1819V35.9282H55.8615C55.6194 35.9281 55.3873 35.8319 55.2161 35.6607C55.0449 35.4895 54.9487 35.2573 54.9486 35.0152C54.9446 33.7182 54.4266 32.4757 53.5081 31.56C52.5897 30.6444 51.3457 30.1302 50.0488 30.1302C48.752 30.1302 47.508 30.6444 46.5896 31.56C45.6711 32.4757 45.1531 33.7182 45.1491 35.0152C45.149 35.2573 45.0528 35.4895 44.8816 35.6607C44.7104 35.8319 44.4782 35.9281 44.2361 35.9282H35.91V44.1819C35.91 44.424 35.8138 44.6562 35.6426 44.8274C35.4714 44.9987 35.2392 45.0949 34.9971 45.095C33.7014 45.099 32.4602 45.6166 31.5454 46.5342C30.6307 47.4519 30.117 48.6948 30.117 49.9906C30.117 51.2864 30.6307 52.5293 31.5454 53.447C32.4602 54.3647 33.7014 54.8823 34.9971 54.8863C35.2392 54.8864 35.4714 54.9826 35.6426 55.1538C35.8138 55.325 35.91 55.5572 35.91 55.7994V64.1963H43.3849C43.6071 62.5867 44.4043 61.1119 45.6292 60.0443C46.8542 58.9768 48.424 58.3887 50.0488 58.3887C51.6736 58.3887 53.2434 58.9768 54.4684 60.0443C55.6933 61.1119 56.4905 62.5867 56.7127 64.1963H64.1876V55.8078C64.1877 55.5656 64.2839 55.3334 64.4551 55.1622C64.6263 54.991 64.8584 54.8948 65.1006 54.8947C66.4 54.8947 67.6462 54.3784 68.565 53.4595C69.4838 52.5406 70 51.2943 70 49.9948C70 48.6953 69.4838 47.449 68.565 46.5301C67.6462 45.6112 66.4 45.095 65.1006 45.095Z" fill="#D3C5FF"/>
<path d="M35.9102 13.2282V5.8132H44.2362C44.4783 5.81314 44.7105 5.71694 44.8817 5.54573C45.0529 5.37452 45.1491 5.14233 45.1492 4.90019C45.1492 3.60058 45.6654 2.3542 46.5843 1.43523C47.5032 0.516269 48.7495 0 50.049 0C51.3485 0 52.5947 0.516269 53.5136 1.43523C54.4325 2.3542 54.9487 3.60058 54.9487 4.90019C54.9488 5.14232 55.045 5.37451 55.2162 5.54572C55.3874 5.71693 55.6195 5.81314 55.8616 5.8132H64.1877V13.2282C62.5788 13.449 61.1043 14.245 60.0368 15.469C58.9694 16.693 58.3813 18.2622 58.3813 19.8864C58.3813 21.5105 58.9694 23.0797 60.0368 24.3037C61.1043 25.5278 62.5788 26.3238 64.1877 26.5446V34.0932H56.7128C56.4798 32.492 55.6782 31.0281 54.4545 29.9695C53.2308 28.9109 51.6669 28.3283 50.0489 28.3283C48.4309 28.3283 46.8671 28.9109 45.6434 29.9695C44.4197 31.0281 43.618 32.492 43.385 34.0932H35.9102V26.5446C37.5214 26.3268 38.999 25.532 40.069 24.3077C41.1389 23.0833 41.7286 21.5124 41.7286 19.8864C41.7286 18.2603 41.1389 16.6895 40.069 15.4651C38.999 14.2407 37.5214 13.4459 35.9102 13.2282Z" fill="#E6DEFF"/>
</svg>
