<svg width="70" height="35" viewBox="0 0 70 35" fill="none" xmlns="http://www.w3.org/2000/svg">
<path d="M70.0003 12.8339C68.8439 13.0667 61.7515 13.8426 56.278 13.0667L53.5027 26.3357C53.5027 26.4133 53.3485 27.034 53.1943 27.2668C52.9631 27.4996 49.4939 30.8363 46.2561 33.1642C47.4896 33.4745 48.6459 33.7849 50.1107 34.0177C57.5885 35.1817 62.2911 35.1817 67.1479 33.8625L62.1369 23.0766L70.0003 12.8339Z" fill="#D3C5FF"/>
<path d="M45.7893 26.492L44.4788 32.0789C46.4831 30.6822 48.873 28.6647 50.4919 27.1127C49.4897 26.9576 47.7937 26.7248 45.7893 26.492Z" fill="#D3C5FF"/>
<path d="M16.1892 26.2575L13.2597 13.2989C7.86332 13.9973 1.07928 13.2989 0 12.9885L7.86332 23.2313L2.77529 34.0172C7.63205 35.2587 12.4117 35.3363 19.8125 34.1724C21.2772 33.9396 22.5107 33.6292 23.6671 33.3188C20.4292 30.9909 16.9601 27.5767 16.7288 27.4215C16.7288 27.2663 16.1892 26.5679 16.1892 26.2575Z" fill="#D3C5FF"/>
<path d="M19.1177 27.0338C20.7366 28.5857 23.2806 30.7584 25.4392 32.2328L24.0515 26.413C21.9701 26.6458 20.197 26.8786 19.1177 27.0338Z" fill="#D3C5FF"/>
<path d="M46.1015 25.0941C47.8746 25.3269 50.0332 25.4821 51.8063 25.9477C51.8834 25.8701 51.9605 25.7925 52.0376 25.7925C53.5794 18.4984 55.1212 11.2044 56.6631 3.83269C44.791 -1.05589 25.0556 -1.52147 12.4126 3.91029C14.1086 11.2044 15.7275 18.576 17.4235 25.8701C17.5006 25.8701 17.5777 25.8701 17.5777 25.8701C26.3661 23.3094 37.6986 24.163 46.1015 25.0941ZM35.0004 18.188L29.0643 21.0591L29.9123 14.4634L25.364 9.65243L31.8396 8.41089L35.0004 2.59115L38.1611 8.41089L44.6368 9.65243L40.0884 14.4634L40.9364 21.0591L35.0004 18.188Z" fill="#E6DEFF" fill-opacity="0.8"/>
</svg>
