<svg width="70" height="72" viewBox="0 0 70 72" fill="none" xmlns="http://www.w3.org/2000/svg">
<path d="M9.44669 0H60.4742C65.7352 0 70 4.26484 70 9.52578V41.4118C70 46.5882 65.749 50.8235 60.5533 50.8235H40.3374V61.4588H48.1781C51.1066 61.4588 53.4683 63.8118 53.4683 66.7294C53.4683 69.6471 51.1066 72 48.1781 72H21.8219C18.8934 72 16.5317 69.6471 16.5317 66.7294C16.5317 63.8118 18.8934 61.4588 21.8219 61.4588H29.6626V50.8235H9.44669C4.25101 50.8235 0 46.5882 0 41.4118V9.41177C0 4.23529 4.25101 0 9.44669 0Z" fill="#E6DEFF"/>
<path d="M29.6656 61.4574V50.8222H40.3403V61.4574H48.1811C51.1096 61.4574 53.4712 63.8104 53.4712 66.728C53.4712 69.6457 51.1096 71.9986 48.1811 71.9986H21.8248C18.8963 71.9986 16.5347 69.6457 16.5347 66.728C16.5347 63.8104 18.8963 61.4574 21.8248 61.4574H29.6656Z" fill="#D3C5FF"/>
</svg>
