<svg width="97" height="90" viewBox="0 0 97 90" fill="none" xmlns="http://www.w3.org/2000/svg">
<path d="M0 18C0 8.05887 8.05887 0 18 0H79C88.9411 0 97 8.05888 97 18V72C97 81.9411 88.9411 90 79 90H18C8.05888 90 0 81.9411 0 72V18Z" fill="#7951F9" fill-opacity="0.6"/>
<path d="M48.5 65.3773C61.1051 65.3773 71.3236 56.254 71.3236 44.9999C71.3236 33.7458 61.1051 24.6226 48.5 24.6226C35.895 24.6226 25.6765 33.7458 25.6765 44.9999C25.6765 48.6208 26.7343 52.0211 28.589 54.968C28.9018 55.4649 29.0134 56.0668 28.8631 56.6344L26.8177 64.3584L33.8381 61.6734C34.445 61.4413 35.1237 61.5235 35.6791 61.8608C39.3335 64.0802 43.7471 65.3773 48.5 65.3773Z" stroke="#F0ECFF" stroke-width="4" stroke-linejoin="round"/>
<ellipse cx="37.0883" cy="45.0003" rx="2.85294" ry="2.54717" fill="white"/>
<ellipse cx="48.4999" cy="45.0003" rx="2.85294" ry="2.54717" fill="white"/>
<ellipse cx="59.9118" cy="45.0003" rx="2.85294" ry="2.54717" fill="white"/>
</svg>
